<?xml version="1.0"?>
<svg xmlns="http://www.w3.org/2000/svg" width="271.448357015" height="368.394198807" viewBox="0 0 700.0 950.0">

  <title id="title5333">Yangon Technological University</title>
  <g transform="translate(0,-102.36218)">

    <g id="g4794" transform="matrix(0.71089942,0,0,0.71089942,50.41568,208.15623)">

        <path style="fill:#ffc555;fill-opacity:1;stroke:#000000;stroke-width:5;stroke-miterlimit:4;stroke-opacity:1;stroke-dasharray:none" d="M 385.85078,1154.0562 C 252.48818,1112.9615 152.59767,1040.4649 79.693258,931.85897 34.820834,865.01237 3.4594138,790.52905 -22.110486,690.07502 l -7.6363,-30 -0.9468,-219.28571 -0.9469,-219.28572 63.00409,0 63.004054,0 0,70 0,70 32.270042,0 32.27004,0 10.93856,-14.34358 c 13.53773,-17.75185 45.1663,-47.25713 68.42835,-63.83462 75.8039,-54.02096 176.35061,-70.58166 270.37873,-44.53314 59.14,16.3835 127.75228,62.54935 161.70671,108.80455 l 10.20854,13.90679 32.6138,0 32.6138,0 0,-70 0,-70 61.42858,0 61.42857,0 0.71428,162.14286 c 1.2828,291.19383 1.77146,273.9184 -8.90291,314.74614 -38.11057,145.76677 -88.60643,240.68738 -171.61323,322.59341 -59.33026,58.5434 -132.13649,101.1647 -222.01003,129.9663 -45.28743,14.5132 -44.11117,14.4681 -80.99071,3.1039 z" id="path3770"/>

        <path style="fill:#ffffff;fill-opacity:1;stroke:#000000;stroke-width:5;stroke-miterlimit:4;stroke-opacity:1;stroke-dasharray:none" d="m 95.18418,220.02565 -59.142854,0 -67.14281,0 0,-99.61716 0,-99.61717 16.428501,-5.99405 c 22.1128996,-8.06801 39.166329,-19.3044 57.018339,-37.56903 14.93298,-15.27813 32.84166,-47.17895 36.52363,-65.05972 l 1.91209,-9.28572 339.433804,0 339.4338,0 3.38468,13.57143 c 10.36957,41.57854 48.70409,82.45336 92.20415,98.31429 l 17.34585,6.32461 -1.83085,35.89483 c -1.00698,19.74216 -1.83606,64.50198 -1.84243,99.46627 l -0.0116,63.57142 -65.71429,0 -57.71428,0 c 0,46.66667 0,95.33334 0,142.00001 -18.5359,0 -45.07179,0 -63.60769,0 -64.00066,-98.05879 -183.82468,-131.56503 -275.82089,-134.166 -96.66398,3.85197 -197.88596,64.58286 -248.85714,133.95774 -19.33326,0.0916 -42.66664,0.14726 -62.00001,0.20826 0,-46.66667 0,-95.33334 0,-142.00001 z" id="path3772"/>

      <g transform="matrix(1.25,0,0,1.25,-33.108011,227.91043)" id="g4702">

          <path style="fill:#b3a584" d="m 347.64,0 34.61,0 c -11.43,1.45 -23.19,1.53 -34.61,0 z" id="path4533"/>

          <path style="fill:#211f1f" d="M 37.9,31.59 C 38.71,20.54 41.08,4.27 54.02,1.58 66.65,4.8 69.06,20.46 69.64,31.55 c 8.61,-1.93 14.32,6 16.61,13.16 5.16,16.04 4.72,35.27 -5.48,49.29 7.86,10.48 9.64,24.38 8.19,37.09 -0.87,8.75 -3.72,17.68 -10.05,24.04 14.1,16.11 12.95,41.31 3.61,59.5 9.45,17.31 9.61,40.28 -1.34,56.97 13.91,14.96 15.23,38.98 7.41,57.22 14.92,14.23 20.72,38.36 13.18,57.62 7.34,4.33 12,11.89 15.16,19.6 4.36,10.92 6.78,23.23 3.61,34.79 16.68,10.78 27.4,31.9 24.74,51.75 12.28,4.42 20.67,15.45 26.22,26.79 3.21,7.43 6.05,15.6 4.6,23.8 18.97,4.37 32.28,22.72 36.82,40.87 19.11,1.76 36.72,15.61 43.96,33.26 17.21,-2.69 34.5,6.44 46.06,18.72 5.98,5.75 8.6,17.14 -0.02,21.8 9.5,5.87 19.67,13.84 20.96,25.79 13.28,4.73 26.6,9.38 39.48,15.14 3.77,2.16 7.61,-0.79 11.14,-2.03 10.99,-5.01 22.49,-8.67 33.82,-12.79 0.02,-12.28 11.35,-20.33 20.68,-26.33 -3.7,-2.25 -7.03,-5.93 -5.98,-10.62 1.84,-8.71 9.01,-15.07 15.96,-20.02 10.49,-6.56 23.15,-12.21 35.74,-9.56 7.31,-17.65 24.78,-31.49 43.91,-33.44 4.89,-18.08 17.81,-36.26 36.79,-40.93 -0.93,-20.8 11.9,-42.17 30.93,-50.75 -2.43,-19.81 8.24,-40.37 24.5,-51.49 -3.74,-19.47 2.64,-42.17 18.78,-54.52 -2.42,-6.77 -3.93,-13.95 -2.95,-21.16 1.53,-13.29 5.91,-27.41 16.52,-36.27 -8.19,-18.23 -6.33,-42.1 7.14,-57.35 -10.69,-16.79 -10.75,-39.93 -0.91,-57.12 -5.41,-8.36 -7.31,-18.53 -6.98,-28.36 -0.21,-11.03 2.32,-23.04 10.56,-30.94 -8.43,-7.84 -10.67,-20.03 -10.56,-31.07 -0.37,-10.5 2.07,-21.36 8.24,-30 -9.54,-13.59 -10.09,-31.76 -5.91,-47.34 2.11,-7.65 7.78,-17.17 17.12,-15.07 0.5,-9.81 2.61,-20.63 10,-27.67 4.3,-3.9 10.68,-2.05 13.97,2.19 5.52,7.19 7.58,16.53 7.75,25.44 8.64,-1.94 14.27,6.01 16.6,13.16 5.18,16.03 4.71,35.28 -5.47,49.3 7.42,9.9 9.5,22.9 8.3,34.99 -0.52,9.43 -3.36,19.24 -10.14,26.12 14.04,16.18 12.99,41.37 3.53,59.57 7.24,12.34 8.4,27.5 5.42,41.31 -1.62,7.03 -4.48,14.36 -10.64,18.63 8.93,9.3 8.92,23.28 7.97,35.31 -1.56,10.77 -5.02,23.28 -15.5,28.62 8.22,11.64 5.9,27.29 1.87,40.07 -3.14,8.64 -7.75,17.57 -16.3,21.92 6.65,12.24 3.63,27.21 -1.24,39.53 -3.58,8.71 -9.2,17.64 -18.5,20.96 5.21,11.77 0.66,24.87 -4.9,35.63 -5.3,9.33 -12.64,18.98 -23.62,21.61 3.63,13.83 -3.21,27.67 -11,38.73 -5.92,7.45 -13.89,15.73 -24.27,14.83 2.83,10.7 -1.58,21.58 -7.62,30.3 -6.27,9.33 -14.84,17.96 -25.97,21.02 -3.22,1.09 -6.48,-0.23 -9.37,-1.61 1.67,11.27 -6.33,21.02 -14.19,28.05 -9.65,8.47 -22.25,15.37 -35.5,13.56 -0.95,5.45 -3.62,10.47 -7.67,14.24 -10.79,10.8 -25.97,18.57 -41.52,17.5 -4.91,-0.14 -8.79,-3.5 -11.03,-7.64 -10.25,4.22 -23.37,8.66 -33.1,0.92 -11.11,4.96 -22.69,9.15 -32.88,15.95 10.47,5.03 21.52,8.74 31.96,13.81 -7.75,4.43 -17.26,4.05 -25.81,6.18 -5.84,-4.42 -11.99,-8.42 -17.84,-12.83 -6,4.23 -11.91,8.59 -17.78,12.99 -8.22,-1.87 -16.67,-2.72 -24.75,-5.17 9.92,-6.28 21.66,-8.96 32,-14.49 -10.46,-6.62 -21.96,-11.2 -33.28,-16.08 -9.77,7.33 -22.57,2.82 -32.65,-1.4 -1.88,3.46 -4.7,6.84 -8.84,7.42 -12.63,2.15 -25.04,-3.34 -35.42,-10.06 -7.42,-5.33 -15.07,-12.44 -15.79,-22.13 -13.06,3.73 -25.78,-4.65 -35.47,-12.6 -7.83,-7.05 -15.54,-16.45 -14.7,-27.65 -10.49,4.44 -20.61,-3.96 -27.68,-10.91 -9.42,-10.4 -19.07,-24.76 -14.53,-39.38 -9.23,1.25 -16.49,-5.68 -22.18,-11.96 C 104.77,548.58 96.8,533.27 100.74,518.31 89.84,515.63 82.41,506.26 77.18,496.91 71.51,486.15 66.87,472.69 72.37,460.96 58.5,455.97 52.73,440.34 49.77,427.13 47.73,418.33 47.83,408.53 52.5,400.55 41.97,395.21 37.43,383.47 34.36,372.8 31.83,361.53 30.67,348.36 38.02,338.57 27.46,333.2 24.13,320.62 22.47,309.81 21.12,297.8 21.79,284.01 30.35,274.59 21.15,267.5 18.56,255.02 18.45,244 17.94,233.73 20.1,223.24 25.43,214.38 18.76,204.1 17.82,191.41 18.64,179.5 c 1.12,-8.88 3.61,-18.19 10.4,-24.48 -6.76,-5.98 -9.2,-15.14 -10.33,-23.78 -1.06,-12.71 0.14,-26.66 8.13,-37.13 C 16.9,80.12 16.42,61.14 21.32,45.19 23.44,37.98 29.29,29.6 37.9,31.59 M 46.97,8.98 c -9.14,15.93 -8.99,37.78 1.18,53.24 3.68,-1.38 7.62,-1.47 11.28,0.04 C 69.61,47.32 69.54,26.28 61.63,10.37 59.15,4.06 50.28,2.46 46.97,8.98 m 623.98,0 c -9.15,15.93 -8.99,37.8 1.18,53.25 3.66,-1.39 7.61,-1.5 11.26,0.05 10.19,-14.93 10.14,-35.99 2.23,-51.9 -2.49,-6.31 -11.37,-7.92 -14.67,-1.4 M 23.38,47.38 c -3.96,14.62 -3.75,31.89 5.44,44.56 2.9,-0.86 5.91,-1.26 8.94,-1.2 C 38.17,81.41 40.3,71.71 46.35,64.33 39.56,56.02 38,44.97 37.53,34.6 29.56,32.35 25.19,41.11 23.38,47.38 M 70.17,34.62 c -0.46,10.36 -2.05,21.4 -8.84,29.69 6.09,7.4 8.12,17.14 8.69,26.47 3.03,-0.14 6.04,0.29 8.95,1.14 5.99,-7.96 7.73,-18.19 7.69,-27.93 -0.19,-9.35 -1.6,-19.5 -7.74,-26.93 -2.07,-2.75 -5.61,-3.11 -8.75,-2.44 m 577.19,12.75 c -3.95,14.61 -3.78,31.91 5.45,44.57 2.89,-0.86 5.9,-1.26 8.93,-1.21 0.42,-9.33 2.53,-19.03 8.59,-26.41 -6.8,-8.3 -8.37,-19.34 -8.81,-29.72 -7.97,-2.27 -12.34,6.5 -14.16,12.77 m 46.79,-12.75 c -0.46,10.37 -2.05,21.41 -8.84,29.71 6.09,7.39 8.1,17.12 8.7,26.45 3.02,-0.13 6.03,0.3 8.94,1.13 8.99,-12.67 9.23,-29.75 5.4,-44.3 -1.8,-6.31 -6.13,-15.32 -14.2,-12.99 M 51.33,64.38 c -7.81,4.93 -9.49,15.2 -10.56,23.68 -0.73,11.59 0.08,24.91 8.23,33.95 4.3,4.58 10.87,0.68 12.9,-4.15 6.77,-13.37 6.77,-29.74 1.92,-43.73 C 61.89,69.16 57.7,61.96 51.33,64.38 m 624,0 c -7.02,4.18 -8.92,13.1 -10.22,20.58 -1.4,12.35 -0.83,26.53 7.38,36.57 3.86,4.86 10.88,1.88 13.03,-3.07 7.19,-13.42 7.16,-30.13 2.27,-44.32 -1.92,-4.97 -6.09,-12.16 -12.46,-9.76 M 23.95,104.97 c -4.34,13.34 -4.2,28.54 1.69,41.38 1.98,4.81 6.62,8.63 12.04,6.99 0.66,-10.09 3.33,-20.41 10.27,-28.08 -8.23,-8.27 -9.9,-20.4 -10.47,-31.52 -7.23,-1.81 -11.62,5.41 -13.53,11.23 M 70.26,93.72 c -0.55,11.14 -2.41,23.06 -10.35,31.51 6.54,7.9 9.61,17.97 10.11,28.15 9.89,2.31 13.76,-9.48 15.4,-16.99 2.26,-12.43 1.88,-26.15 -4.49,-37.37 -2.05,-3.91 -6.23,-6.31 -10.67,-5.3 m 577.18,12.68 c -3.88,13.64 -3.67,29.26 3.28,41.89 2.01,4.18 6.46,6.23 10.94,5.06 0.51,-10.14 3.53,-20.16 10.01,-28.08 -7.77,-8.57 -9.77,-20.36 -10.22,-31.53 -7.88,-1.87 -12.14,6.44 -14.01,12.66 m 46.82,-12.68 c -0.59,11.12 -2.44,23.01 -10.33,31.49 6.42,7.94 9.6,17.97 10.06,28.17 4.9,1.31 9.46,-1.52 11.48,-5.98 6.37,-12.65 6.51,-27.91 2.63,-41.34 -1.9,-6.1 -6.13,-14.15 -13.84,-12.34 M 41.65,144.83 c -2.33,13.34 -1.61,28.43 6.64,39.73 3.58,-1.47 7.46,-1.49 11,0.08 9.48,-13.1 9.52,-31.06 5.1,-46.04 -1.9,-5.23 -5.52,-13 -12.29,-11.59 -6.78,3.04 -8.9,11.19 -10.45,17.82 m 623.83,0.76 c -2.11,13.13 -1.33,27.89 6.78,38.97 3.58,-1.46 7.46,-1.49 11,0.07 9.48,-13.08 9.53,-31.05 5.1,-46.03 -1.89,-5.23 -5.5,-13 -12.27,-11.6 -7.02,3.18 -9.09,11.72 -10.61,18.59 M 24.45,166.56 c -4.75,12.99 -4.73,27.84 0.28,40.75 1.94,5.23 6.52,11.04 12.81,9.07 0.46,-10.41 2.01,-21.51 8.89,-29.8 -6.95,-8.27 -8.38,-19.44 -8.93,-29.84 -6.57,-1.87 -11.13,4.38 -13.05,9.82 m 45.77,-9.81 c -0.53,10.42 -2.08,21.53 -8.95,29.86 6.84,8.27 8.47,19.34 8.88,29.72 6.41,2.11 10.99,-4 12.92,-9.29 4.84,-12.8 4.84,-27.49 0.22,-40.36 -1.9,-5.45 -6.45,-11.82 -13.07,-9.93 m 578.2,9.8 c -4.75,12.99 -4.72,27.85 0.29,40.77 1.94,5.23 6.51,11.04 12.81,9.06 0.45,-10.4 2,-21.51 8.89,-29.79 -6.94,-8.29 -8.39,-19.44 -8.93,-29.85 -6.57,-1.86 -11.14,4.38 -13.06,9.81 m 45.79,-9.82 c -0.59,10.42 -2.06,21.55 -8.96,29.88 6.85,8.27 8.43,19.35 8.88,29.73 6.42,2.09 10.99,-4.01 12.91,-9.3 4.85,-12.81 4.84,-27.49 0.23,-40.36 -1.89,-5.46 -6.45,-11.8 -13.06,-9.95 M 47.68,189.67 c -10.01,15.51 -9.49,37.24 -0.43,53.11 4.12,-1.86 8.63,-1.5 12.49,0.83 9.6,-14.79 9.68,-34.93 2.44,-50.7 -2.14,-6.01 -10.49,-9.69 -14.5,-3.24 m 618.8,10.88 c -3.48,14.25 -3.04,30.7 5.54,43.13 3.73,-2.36 8.22,-2.86 12.23,-0.85 7.9,-12.33 8.25,-28.15 4.97,-42.03 -1.77,-5.86 -4.43,-13.48 -11.23,-14.79 -6.94,0.95 -9.71,8.72 -11.51,14.54 m -639.4,16.26 c -7.52,13.81 -7.9,30.99 -2.58,45.62 1.94,5.66 7.35,12.69 14.01,8.91 0.22,-9.17 1.29,-18.86 6.93,-26.45 -5.22,-7.45 -7.36,-16.59 -7.59,-25.57 -3.84,0.76 -7.57,-0.39 -10.77,-2.51 M 70,219.33 c -0.6,9.29 -2.54,18.97 -8.52,26.4 5.47,6.88 8.04,15.48 9.34,24.04 2.73,-0.4 5.5,-0.4 8.23,-0.06 10.29,-15.34 9.96,-36.82 1.53,-52.93 -3.12,2.17 -6.8,3.29 -10.58,2.55 m 581.06,-2.52 c -8.42,16.12 -8.79,37.6 1.61,52.9 2.74,-0.35 5.52,-0.34 8.26,0.09 1.11,-8.58 3.81,-17.16 9.23,-24.02 -5.82,-7.49 -8.09,-17.1 -8.32,-26.43 -3.85,0.72 -7.57,-0.42 -10.78,-2.54 m 42.9,2.51 c -0.53,8.96 -2.43,18.16 -7.76,25.57 5.65,7.56 6.8,17.27 6.91,26.43 6.78,3.84 12.26,-3.39 14.17,-9.15 5.09,-14.58 4.81,-31.67 -2.73,-45.37 -3.12,2.16 -6.81,3.27 -10.59,2.52 M 44.72,251.69 c -4.71,11.71 -3.95,25.04 -0.44,36.97 1.93,5.67 4.5,11.91 9.93,15.03 2.62,-0.22 5.19,-0.88 7.79,-1.24 7.64,-10.44 7.43,-24.41 5.25,-36.6 -1.79,-7.67 -4.34,-16.39 -11.39,-20.84 -4.96,-2.76 -9.52,2.41 -11.14,6.68 m 630.62,-6.41 c -7.26,5.12 -9.7,14.48 -11.31,22.75 -1.7,11.54 -1.69,24.75 5.76,34.43 2.55,0.34 5.09,0.84 7.59,1.52 7.88,-5.6 10.63,-15.56 12.13,-24.61 1.19,-10.05 1.2,-20.96 -3.79,-30.07 -1.82,-3.66 -6.53,-6.74 -10.38,-4.02 M 71.22,272.77 c 0.47,10.6 -0.08,22.15 -6.69,30.99 7.65,5.57 11.12,14.85 13.16,23.74 2.83,-0.38 5.68,-0.47 8.53,-0.28 6.81,-14.89 5.44,-33.06 -1.95,-47.48 -2.41,-4.72 -7.39,-9.42 -13.05,-6.97 m 574.6,10.08 c -5.73,13.9 -6.86,30.46 -0.42,44.32 2.85,-0.08 5.72,-0.09 8.56,0.36 2.06,-8.88 5.49,-18.16 13.14,-23.74 -6.53,-8.92 -7.15,-20.46 -6.71,-31.11 -7.13,-2.68 -12.19,4.49 -14.57,10.17 m -617.9,0.08 c -4.52,11.07 -3.98,23.67 -1.06,35.08 1.88,6.32 4.48,13.29 10.36,16.93 3.48,2.22 9.44,-0.42 8.84,-4.87 -0.15,-8.38 1.73,-16.7 5.84,-24.02 -8.92,-7.47 -11.71,-19.39 -13.18,-30.4 -5.11,-1.06 -9.13,2.83 -10.8,7.28 m 664.98,-7.24 c -1.26,11.11 -4.48,22.64 -12.97,30.45 3.77,7.4 5.97,15.56 5.65,23.92 -0.49,6.03 8.34,7.4 11.44,2.96 9.94,-11.57 11.38,-28.46 8.94,-42.97 -1.25,-6.49 -4.74,-15.92 -13.06,-14.36 m -635.65,30.4 c -5.09,2.89 -6.59,9.22 -7.66,14.55 -1.74,12.66 -0.04,26.18 6.37,37.38 2.33,3.76 6.02,8.33 11.01,7.35 5.78,-2.34 7.49,-9.2 8.61,-14.72 1.84,-13.03 0.08,-27.06 -6.83,-38.43 -2.38,-3.7 -6.68,-8.25 -11.5,-6.13 m 612.03,0.02 c -5.59,2.93 -8.37,9.1 -10.49,14.73 -3.71,11.13 -4.78,23.47 -1.49,34.83 1.37,4.16 3.75,9.38 8.7,9.88 5.03,-0.31 8.27,-4.94 10.53,-8.96 6.16,-12.11 7.8,-26.55 4.72,-39.77 -1.26,-5.3 -5.26,-13.41 -11.97,-10.71 m -590.93,24.4 c 1.31,10.37 1.32,21.36 -3.25,31 9.35,6.17 13.53,17.13 16.62,27.4 6.93,0.21 9.78,-7.12 10.38,-12.9 1.43,-12.93 -1.72,-26.41 -8.56,-37.47 -3.17,-5 -8.68,-10.88 -15.19,-8.03 m 559.93,7.82 c -7.08,11.24 -10.21,25.04 -8.64,38.24 0.65,5.64 3.64,12.71 10.41,12.28 2.92,-10.28 7.22,-21.18 16.52,-27.32 -4.62,-9.68 -4.51,-20.71 -3.29,-31.13 -6.42,-2.59 -11.85,2.98 -15,7.93 M 35.59,351.44 c -1.55,13.63 1.89,27.98 9.64,39.33 3.12,4.65 8.85,9.36 14.61,6.07 -1.63,-9.74 -2.83,-20.08 0.92,-29.51 -9.14,-6.54 -12.06,-18.04 -14.3,-28.43 -7.15,-0.88 -10.24,6.71 -10.87,12.54 m 649.48,-12.41 c -2.01,10.39 -5.13,21.7 -14.1,28.29 3.65,9.55 2.54,19.93 0.82,29.76 6.84,3.16 12.74,-2.88 16,-8.26 7.02,-11.71 10.22,-26.03 7.9,-39.55 -0.81,-5.26 -4.39,-11.4 -10.62,-10.24 M 73.86,363.98 c -2.84,2.98 -6.63,4.64 -10.75,4.72 -4.95,17.12 -0.48,37.41 11.78,50.45 4.57,5.5 12.99,2.45 14,-4.33 4.19,-17.6 -0.66,-39.02 -15.03,-50.84 m 569.36,24.36 c -2.31,10.15 -4,22.13 2.09,31.29 4.3,5.51 11.55,0.68 14.53,-3.76 9.51,-13.35 13.49,-31.37 8.65,-47.22 -4.1,0.04 -7.8,-1.7 -10.55,-4.68 -8.11,5.63 -12.22,15.15 -14.72,24.37 m -551.09,3.48 c 1.79,9.18 1.74,18.9 -1.82,27.68 10.04,5.89 15.52,16.65 19.08,27.32 2.9,-0.33 6,-1.23 7.28,-4.14 4.03,-8.14 2.79,-17.75 0.87,-26.3 -2.8,-10.5 -7.52,-21.56 -17.11,-27.54 -2.57,1.46 -5.37,2.5 -8.3,2.98 m 520.26,36.1 c -0.27,7.14 0.54,18.38 9.81,19 3.71,-10.48 8.78,-21.59 19.06,-27.09 -3.19,-8.97 -3.58,-18.66 -1.77,-27.97 -2.93,-0.5 -5.7,-1.57 -8.25,-3.05 -12.68,8.49 -17.64,24.6 -18.85,39.11 M 51.7,410.69 c -1.51,14.16 2.72,28.93 11.23,40.33 3.39,4.58 9.65,9.39 15.25,5.31 -2.68,-10.24 -4.21,-21.58 0.27,-31.55 -9.9,-4.76 -14.44,-15.54 -17.79,-25.34 -5.69,0.73 -8.53,5.99 -8.96,11.25 m 619.26,-11.27 c -3.26,9.83 -7.85,20.64 -17.78,25.35 4.65,9.99 2.9,21.37 0.34,31.67 4.93,3.4 10.66,0.14 13.95,-3.93 8.49,-10.08 12.6,-23.45 12.91,-36.5 0.01,-6.57 -1.42,-15.59 -9.42,-16.59 M 81.17,425.67 c -6.08,14.88 -1.2,32.12 6.85,45.31 3.08,4.38 7.09,9.46 12.89,9.74 4.62,-0.38 6.65,-5.42 7.48,-9.35 1.85,-10.52 -0.45,-21.39 -4.56,-31.12 -3.24,-7.25 -7.76,-14.75 -15.43,-17.93 -2.34,1.28 -4.75,2.39 -7.23,3.35 m 547.41,12.93 c -4.68,10.48 -7.56,22.44 -5.04,33.85 0.84,4.15 4.09,9.38 9.03,8.08 8.28,-2.85 12.64,-11.43 15.98,-18.94 4.32,-11.33 7.24,-24.78 1.69,-36.19 -2.44,-0.86 -4.77,-2.02 -7.23,-2.79 -7.08,2.59 -11.23,9.57 -14.43,15.99 m -518.56,11.1 c 2.62,8.01 1.05,16.43 2.08,24.59 11.12,3.51 18.13,13.39 23.89,22.89 7.06,-1.05 7.82,-9.57 7.01,-15.23 -2.27,-15.09 -10.28,-29.87 -23.09,-38.52 -2.35,3.36 -5.65,6.03 -9.89,6.27 m 479.07,29.4 c -1.26,6.51 -1.48,16.34 6.61,18.3 5.49,-9.53 12.51,-19.5 23.58,-22.83 1.64,-8.13 -0.37,-16.73 2.33,-24.82 -4.16,-0.4 -7.53,-2.87 -9.8,-6.26 -12.2,7.92 -19.7,21.66 -22.72,35.61 m 63.42,-19.15 c -4.48,9.75 -9.86,21.79 -21.64,23.94 1.42,10.11 -2.44,19.65 -5.91,28.87 3.94,4.66 10.52,1.81 14.39,-1.42 10.37,-8.58 17.03,-21.3 19.43,-34.44 1.05,-6.12 0.8,-14.65 -6.27,-16.95 M 72.93,477.01 c 2.33,12.99 8.93,25.48 19.05,34.07 4.05,3.55 10.76,6.26 15.03,1.54 -4.17,-8.94 -7.56,-18.76 -6.15,-28.76 -11.79,-2.08 -17.34,-14.16 -21.66,-23.99 -7.16,2.39 -7.31,10.94 -6.27,17.14 m 30.91,6.42 c -1.96,12.87 3.58,25.59 10.79,35.95 4.41,5.7 9.81,12 17.38,12.96 4.59,0.44 7.11,-4.42 7.34,-8.35 0.88,-11.04 -3.59,-21.78 -9.36,-30.97 -4.78,-7.09 -11.05,-14.49 -20.02,-15.82 -1.88,2.23 -3.91,4.34 -6.13,6.23 m 492.12,20.54 c -2.95,8.01 -6.1,17.68 -1.71,25.73 3.78,5.17 10.93,1.62 14.77,-1.68 11.35,-9.97 18.86,-24.83 19.3,-40.01 0.74,-4.91 -4.06,-7.36 -6.57,-10.77 -13.17,2.46 -20.74,15.47 -25.79,26.73 m -32.41,14.63 c -3.73,7.61 -6.97,16.32 -4.98,24.86 0.55,3.01 3.31,4.5 5.89,5.55 6.08,-9.4 14.06,-18.16 25.04,-21.63 -0.76,-9.4 1,-18.8 5.01,-27.35 -2.73,-1.14 -5.14,-2.83 -7.3,-4.81 -10.96,3.75 -18.38,13.55 -23.66,23.38 M 137.12,499.98 c 4.13,8.61 5.72,18.12 5.17,27.6 10.99,3.21 18.87,12.09 24.83,21.43 8.78,-2.46 7.07,-13.47 5.11,-20.18 -4.57,-13.92 -13.44,-28.4 -27.85,-33.58 -2.1,2.03 -4.53,3.68 -7.26,4.73 m -34.23,32.15 c 2.9,12.68 10.04,24.58 20.23,32.73 4.46,3.65 11.7,6.58 16.23,1.43 -5.1,-9.35 -9.65,-20.05 -7.47,-30.91 -10.83,-1.89 -17.72,-11.42 -23.42,-19.96 -6.93,2.45 -6.9,10.71 -5.57,16.71 m 496.97,3.27 c 1.99,10.88 -2.4,21.49 -7.49,30.87 4.32,5.04 11.39,2.42 15.76,-1.11 10.5,-8.17 17.79,-20.33 20.68,-33.26 1.38,-5.91 1.24,-14.27 -5.73,-16.43 -5.53,8.61 -12.51,17.92 -23.22,19.93 m -465.05,-0.1 c -2.74,14.3 5.05,28.3 14,38.89 4.56,4.8 10.16,10.12 17.22,10.04 4.93,-0.36 6.45,-6.1 6.24,-10.21 -0.47,-12.01 -6.45,-23.19 -14.02,-32.26 -4.54,-5.03 -10.1,-10.32 -17.19,-10.88 -2.23,1.26 -4.13,3 -6.25,4.42 m 438.32,6.78 c -8.17,10.23 -15.54,23.43 -13.13,36.93 2.05,8.23 12.32,5.05 16.83,0.81 12.58,-10.66 22.61,-27.39 20.1,-44.36 -2.07,-1.48 -3.96,-3.2 -6.1,-4.57 -7.35,0.42 -13.04,6.01 -17.7,11.19 m -397.34,3.7 c -1.9,2.55 -4.36,4.57 -7.19,6 3.23,6.33 5.85,13.1 6.4,20.25 0.02,2.58 1.73,4.61 3.04,6.69 11.73,1.5 21.44,8.9 29.77,16.78 5.32,-7.92 0.99,-17.75 -3.03,-25.22 -6.52,-10.94 -15.97,-21.79 -28.99,-24.5 m 376.82,0.81 c -12.21,4.25 -21.02,14.97 -26.98,26.04 -3.36,6.92 -6.68,15.88 -1.72,22.89 8.28,-8.05 18.16,-15.27 29.9,-16.88 4.68,-8.29 3.67,-18.73 9.26,-26.85 -4.03,-1.04 -5.87,-7.4 -10.46,-5.2 m -414.1,38.86 c 4.43,14.27 14.48,27.42 28.11,33.91 5.06,2.87 12.27,1.17 13.16,-5.26 -6.75,-7.42 -13.44,-16.29 -13.23,-26.82 -10.79,-0.36 -18.42,-9.13 -24.63,-16.96 -5.09,3.3 -4.96,9.94 -3.41,15.13 m 426.62,1.78 c 0.21,10.56 -6.47,19.52 -13.33,26.89 1.1,6.48 8.36,8.15 13.51,5.13 12.66,-6.07 21.98,-18 26.97,-30.92 1.98,-5.72 3.69,-13.97 -2.4,-17.81 -6.61,7.42 -13.86,16.57 -24.75,16.71 m -395.64,2.74 c 1.14,9.62 7.71,17.58 14.46,24.09 7.2,6.41 15.93,12.54 25.91,12.69 4.61,0.21 7.97,-4.35 6.99,-8.73 -1.52,-9.83 -8.32,-17.88 -15.4,-24.43 -7.59,-6.56 -16.99,-12.66 -27.47,-11.73 -1.94,2.41 -5.25,4.55 -4.49,8.11 m 380.8,-7.72 c -14.95,4.29 -27.65,15.98 -34.01,30.08 -2.58,5.01 -2.4,13.99 4.88,14.37 13.69,-0.17 25.14,-10.09 33.44,-20.13 4.12,-5.59 8.34,-12.22 7.45,-19.47 -1.94,-4.61 -7.11,-6.5 -11.76,-4.85 m -336.92,4.42 c -0.15,4 -1.33,7.89 -3.95,10.98 5.32,5.86 8.77,13.06 10.97,20.61 11.77,-1.96 22.9,3.43 32.67,9.35 2.68,-4.64 1.59,-10.22 -1.06,-14.6 -8.23,-13.65 -22.57,-24.47 -38.63,-26.34 m 270,20.75 c -4.25,5.57 -8.94,13.39 -4.61,20.22 9.63,-6.13 20.86,-11.25 32.57,-9.39 2.1,-7.56 5.59,-14.71 10.87,-20.56 -2.54,-3.14 -3.74,-7.03 -3.97,-11.02 -13.93,1.44 -26.17,10.16 -34.86,20.75 M 184.9,618.79 c -6.46,4.67 -2.86,13.24 0.8,18.5 8.15,11.44 20.44,20.8 34.5,23.2 4.95,1.27 12.38,-1.91 10.6,-7.99 -7.44,-6.23 -15.31,-13.35 -17.19,-23.37 -10.69,2.05 -20.57,-4.18 -28.71,-10.34 m 333.22,10.36 c -2.13,10.21 -10.1,17.62 -17.95,23.81 0.16,6.05 6.33,8.76 11.62,7.49 13.77,-2.5 25.82,-11.62 33.93,-22.79 3.8,-5.33 7.45,-13.85 1.23,-18.86 -8.32,5.98 -18.06,12.42 -28.83,10.35 m -260.36,-9.27 c -0.08,3.35 -0.94,6.6 -2.69,9.47 5.91,4.62 11.4,10.09 14.58,17 1.03,3.03 4.33,4.32 7.32,4.01 7.77,-0.24 15.22,2.37 22.25,5.41 3.03,-1.16 6.89,-2.92 6.82,-6.76 -0.25,-7.17 -5.94,-12.61 -11.07,-16.95 -10.47,-8.05 -23.74,-14.07 -37.21,-12.18 m 182.02,9.89 c -6.02,4.35 -12.2,9.77 -14.05,17.26 -1.51,5.24 5.06,10.34 9.71,7.55 6.19,-2.63 12.83,-4.43 19.61,-4.23 2.7,0.24 5.73,-0.88 6.74,-3.58 3.21,-7.07 8.75,-12.72 14.82,-17.42 -1.79,-2.87 -2.59,-6.16 -2.89,-9.5 -12.11,-1.71 -24.09,3.24 -33.94,9.92 m -223.54,-1.73 c 2.09,10.71 10.87,18.4 19.54,24.18 8.03,4.88 17.49,9.32 27.12,7.61 4.42,-0.68 6.79,-5.68 5.15,-9.71 -2.93,-9.09 -10.56,-15.73 -18.22,-20.96 -7.94,-4.99 -17.22,-9.36 -26.83,-8.23 -3.91,0.18 -4.74,4.55 -6.76,7.11 m 257.34,7.57 c -5.36,5.37 -12.62,13.01 -9.44,21.15 6.3,6.72 16.91,2.56 24.19,-0.43 11.74,-5.78 24.08,-14.72 27.07,-28.23 -1.34,-2.09 -2.6,-4.23 -3.75,-6.42 -14.07,-3.42 -27.84,5.03 -38.07,13.93 m -201.87,18.18 c -0.9,3.25 -2.8,6.05 -5.3,8.29 3.76,10.89 13.91,17.91 23.86,22.7 8.4,3.65 18.61,7.08 27.4,2.94 5.86,-3.88 1.9,-11.68 -1.67,-15.74 -10.94,-12.02 -27.72,-20.82 -44.29,-18.19 m 153.03,9.93 c -5.86,4.4 -12.11,9.78 -13.66,17.3 -1.04,4.32 2.98,7.76 6.94,8.2 10.16,1.51 20.22,-2.41 28.92,-7.33 7.6,-4.69 15.61,-10.76 18.09,-19.76 -2.09,-2.56 -4.15,-5.18 -5.19,-8.36 -12.49,-2.33 -24.96,3.05 -35.1,9.95 m -191.28,5.69 c 7.39,11.81 20.61,19.03 33.88,22.19 6.5,1.35 15.83,1.88 18.81,-5.57 -9.44,-5.37 -19.06,-12.48 -22.48,-23.3 -9.39,1.47 -18.55,-2.02 -26.7,-6.36 -5.57,1.91 -6.79,8.51 -3.51,13.04 M 492.5,657.5 c -7.57,3.76 -15.97,6.56 -24.52,5.26 -3.41,10.85 -13.11,17.9 -22.52,23.35 1.86,4.11 6.07,6.46 10.55,6.23 13.17,0.04 25.77,-6.23 35.52,-14.76 4.07,-3.91 8.32,-8.66 8.58,-14.58 0,-3.51 -4.2,-7.77 -7.61,-5.5 m -164.74,60.45 c 6.87,1.43 13.78,2.7 20.69,4 15.61,-11.7 31.74,-23.16 49.92,-30.54 3.93,-1.76 8.06,-3.18 11.63,-5.66 -28.37,7.94 -54.9,21.36 -82.24,32.2 m -3.25,-31.15 c 11.27,5.3 22.98,9.78 33.45,16.67 1.66,-0.7 3.32,-1.41 4.98,-2.1 -12.6,-5.39 -25.3,-10.62 -38.43,-14.57 m 43.18,23.04 c 5.73,3.74 10.98,8.2 16.76,11.85 6.4,-0.45 12.66,-2.32 18.99,-3.37 -9.8,-4.27 -19.72,-8.25 -29.56,-12.42 -2.07,1.31 -4.13,2.62 -6.19,3.94 z" id="path4536"/>

        <g style="fill:#fefefe">

          <path d="m 46.97,8.98 c 3.31,-6.52 12.18,-4.92 14.66,1.39 7.91,15.91 7.98,36.95 -2.2,51.89 C 55.77,60.75 51.83,60.84 48.15,62.22 37.98,46.76 37.83,24.91 46.97,8.98 z" id="path4539"/>

          <path d="m 670.95,8.98 c 3.3,-6.52 12.18,-4.91 14.67,1.4 7.91,15.91 7.96,36.97 -2.23,51.9 -3.65,-1.55 -7.6,-1.44 -11.26,-0.05 C 661.96,46.78 661.8,24.91 670.95,8.98 z" id="path4541"/>

          <path d="M 23.38,47.38 C 25.19,41.11 29.56,32.35 37.53,34.6 38,44.97 39.56,56.02 46.35,64.33 40.3,71.71 38.17,81.41 37.76,90.74 34.73,90.68 31.72,91.08 28.82,91.94 19.63,79.27 19.42,62 23.38,47.38 z" id="path4543"/>

          <path d="m 70.17,34.62 c 3.14,-0.67 6.68,-0.31 8.75,2.44 6.14,7.43 7.55,17.58 7.74,26.93 0.04,9.74 -1.7,19.97 -7.69,27.93 -2.91,-0.85 -5.92,-1.28 -8.95,-1.14 -0.57,-9.33 -2.6,-19.07 -8.69,-26.47 6.79,-8.29 8.38,-19.33 8.84,-29.69 z" id="path4545"/>

          <path d="m 647.36,47.37 c 1.82,-6.27 6.19,-15.04 14.16,-12.77 0.44,10.38 2.01,21.42 8.81,29.72 -6.06,7.38 -8.17,17.08 -8.59,26.41 -3.03,-0.05 -6.04,0.35 -8.93,1.21 -9.23,-12.66 -9.4,-29.96 -5.45,-44.57 z" id="path4547"/>

          <path d="m 694.15,34.62 c 8.07,-2.33 12.4,6.68 14.2,12.99 3.83,14.55 3.59,31.63 -5.4,44.3 -2.91,-0.83 -5.92,-1.26 -8.94,-1.13 -0.6,-9.33 -2.61,-19.06 -8.7,-26.45 6.79,-8.3 8.38,-19.34 8.84,-29.71 z" id="path4549"/>

          <path d="m 51.33,64.38 c 6.37,-2.42 10.56,4.78 12.49,9.75 4.85,13.99 4.85,30.36 -1.92,43.73 -2.03,4.83 -8.6,8.73 -12.9,4.15 -8.15,-9.04 -8.96,-22.36 -8.23,-33.95 1.07,-8.48 2.75,-18.75 10.56,-23.68 z" id="path4551"/>

          <path d="m 675.33,64.38 c 6.37,-2.4 10.54,4.79 12.46,9.76 4.89,14.19 4.92,30.9 -2.27,44.32 -2.15,4.95 -9.17,7.93 -13.03,3.07 -8.21,-10.04 -8.78,-24.22 -7.38,-36.57 1.3,-7.48 3.2,-16.4 10.22,-20.58 z" id="path4553"/>

          <path d="m 23.95,104.97 c 1.91,-5.82 6.3,-13.04 13.53,-11.23 0.57,11.12 2.24,23.25 10.47,31.52 -6.94,7.67 -9.61,17.99 -10.27,28.08 -5.42,1.64 -10.06,-2.18 -12.04,-6.99 -5.89,-12.84 -6.03,-28.04 -1.69,-41.38 z" id="path4555"/>

          <path d="m 70.26,93.72 c 4.44,-1.01 8.62,1.39 10.67,5.3 6.37,11.22 6.75,24.94 4.49,37.37 -1.64,7.51 -5.51,19.3 -15.4,16.99 -0.5,-10.18 -3.57,-20.25 -10.11,-28.15 7.94,-8.45 9.8,-20.37 10.35,-31.51 z" id="path4557"/>

          <path d="m 647.44,106.4 c 1.87,-6.22 6.13,-14.53 14.01,-12.66 0.45,11.17 2.45,22.96 10.22,31.53 -6.48,7.92 -9.5,17.94 -10.01,28.08 -4.48,1.17 -8.93,-0.88 -10.94,-5.06 -6.95,-12.63 -7.16,-28.25 -3.28,-41.89 z" id="path4559"/>

          <path d="m 694.26,93.72 c 7.71,-1.81 11.94,6.24 13.84,12.34 3.88,13.43 3.74,28.69 -2.63,41.34 -2.02,4.46 -6.58,7.29 -11.48,5.98 -0.46,-10.2 -3.64,-20.23 -10.06,-28.17 7.89,-8.48 9.74,-20.37 10.33,-31.49 z" id="path4561"/>

          <path d="m 41.65,144.83 c 1.55,-6.63 3.67,-14.78 10.45,-17.82 6.77,-1.41 10.39,6.36 12.29,11.59 4.42,14.98 4.38,32.94 -5.1,46.04 -3.54,-1.57 -7.42,-1.55 -11,-0.08 -8.25,-11.3 -8.97,-26.39 -6.64,-39.73 z" id="path4563"/>

          <path d="m 665.48,145.59 c 1.52,-6.87 3.59,-15.41 10.61,-18.59 6.77,-1.4 10.38,6.37 12.27,11.6 4.43,14.98 4.38,32.95 -5.1,46.03 -3.54,-1.56 -7.42,-1.53 -11,-0.07 -8.11,-11.08 -8.89,-25.84 -6.78,-38.97 z" id="path4565"/>

          <path d="m 24.45,166.56 c 1.92,-5.44 6.48,-11.69 13.05,-9.82 0.55,10.4 1.98,21.57 8.93,29.84 -6.88,8.29 -8.43,19.39 -8.89,29.8 -6.29,1.97 -10.87,-3.84 -12.81,-9.07 -5.01,-12.91 -5.03,-27.76 -0.28,-40.75 z" id="path4567"/>

          <path d="m 70.22,156.75 c 6.62,-1.89 11.17,4.48 13.07,9.93 4.62,12.87 4.62,27.56 -0.22,40.36 -1.93,5.29 -6.51,11.4 -12.92,9.29 -0.41,-10.38 -2.04,-21.45 -8.88,-29.72 6.87,-8.33 8.42,-19.44 8.95,-29.86 z" id="path4569"/>

          <path d="m 648.42,166.55 c 1.92,-5.43 6.49,-11.67 13.06,-9.81 0.54,10.41 1.99,21.56 8.93,29.85 -6.89,8.28 -8.44,19.39 -8.89,29.79 -6.3,1.98 -10.87,-3.83 -12.81,-9.06 -5.01,-12.92 -5.04,-27.78 -0.29,-40.77 z" id="path4571"/>

          <path d="m 694.21,156.73 c 6.61,-1.85 11.17,4.49 13.06,9.95 4.61,12.87 4.62,27.55 -0.23,40.36 -1.92,5.29 -6.49,11.39 -12.91,9.3 -0.45,-10.38 -2.03,-21.46 -8.88,-29.73 6.9,-8.33 8.37,-19.46 8.96,-29.88 z" id="path4573"/>

          <path d="m 47.68,189.67 c 4.01,-6.45 12.36,-2.77 14.5,3.24 7.24,15.77 7.16,35.91 -2.44,50.7 -3.86,-2.33 -8.37,-2.69 -12.49,-0.83 -9.06,-15.87 -9.58,-37.6 0.43,-53.11 z" id="path4575"/>

          <path d="m 666.48,200.55 c 1.8,-5.82 4.57,-13.59 11.51,-14.54 6.8,1.31 9.46,8.93 11.23,14.79 3.28,13.88 2.93,29.7 -4.97,42.03 -4.01,-2.01 -8.5,-1.51 -12.23,0.85 -8.58,-12.43 -9.02,-28.88 -5.54,-43.13 z" id="path4577"/>

          <path d="m 27.08,216.81 c 3.2,2.12 6.93,3.27 10.77,2.51 0.23,8.98 2.37,18.12 7.59,25.57 -5.64,7.59 -6.71,17.28 -6.93,26.45 -6.66,3.78 -12.07,-3.25 -14.01,-8.91 -5.32,-14.63 -4.94,-31.81 2.58,-45.62 z" id="path4579"/>

          <path d="m 70,219.33 c 3.78,0.74 7.46,-0.38 10.58,-2.55 8.43,16.11 8.76,37.59 -1.53,52.93 -2.73,-0.34 -5.5,-0.34 -8.23,0.06 -1.3,-8.56 -3.87,-17.16 -9.34,-24.04 5.98,-7.43 7.92,-17.11 8.52,-26.4 z" id="path4581"/>

          <path d="m 651.06,216.81 c 3.21,2.12 6.93,3.26 10.78,2.54 0.23,9.33 2.5,18.94 8.32,26.43 -5.42,6.86 -8.12,15.44 -9.23,24.02 -2.74,-0.43 -5.52,-0.44 -8.26,-0.09 -10.4,-15.3 -10.03,-36.78 -1.61,-52.9 z" id="path4583"/>

          <path d="m 693.96,219.32 c 3.78,0.75 7.47,-0.36 10.59,-2.52 7.54,13.7 7.82,30.79 2.73,45.37 -1.91,5.76 -7.39,12.99 -14.17,9.15 -0.11,-9.16 -1.26,-18.87 -6.91,-26.43 5.33,-7.41 7.23,-16.61 7.76,-25.57 z" id="path4585"/>

          <path d="m 44.72,251.69 c 1.62,-4.27 6.18,-9.44 11.14,-6.68 7.05,4.45 9.6,13.17 11.39,20.84 2.18,12.19 2.39,26.16 -5.25,36.6 -2.6,0.36 -5.17,1.02 -7.79,1.24 -5.43,-3.12 -8,-9.36 -9.93,-15.03 -3.51,-11.93 -4.27,-25.26 0.44,-36.97 z" id="path4587"/>

          <path d="m 675.34,245.28 c 3.85,-2.72 8.56,0.36 10.38,4.02 4.99,9.11 4.98,20.02 3.79,30.07 -1.5,9.05 -4.25,19.01 -12.13,24.61 -2.5,-0.68 -5.04,-1.18 -7.59,-1.52 -7.45,-9.68 -7.46,-22.89 -5.76,-34.43 1.61,-8.27 4.05,-17.63 11.31,-22.75 z" id="path4589"/>

          <path d="m 71.22,272.77 c 5.66,-2.45 10.64,2.25 13.05,6.97 7.39,14.42 8.76,32.59 1.95,47.48 -2.85,-0.19 -5.7,-0.1 -8.53,0.28 -2.04,-8.89 -5.51,-18.17 -13.16,-23.74 6.61,-8.84 7.16,-20.39 6.69,-30.99 z" id="path4591"/>

          <path d="m 645.82,282.85 c 2.38,-5.68 7.44,-12.85 14.57,-10.17 -0.44,10.65 0.18,22.19 6.71,31.11 -7.65,5.58 -11.08,14.86 -13.14,23.74 -2.84,-0.45 -5.71,-0.44 -8.56,-0.36 -6.44,-13.86 -5.31,-30.42 0.42,-44.32 z" id="path4593"/>

          <path d="m 27.92,282.93 c 1.67,-4.45 5.69,-8.34 10.8,-7.28 1.47,11.01 4.26,22.93 13.18,30.4 -4.11,7.32 -5.99,15.64 -5.84,24.02 0.6,4.45 -5.36,7.09 -8.84,4.87 C 31.34,331.3 28.74,324.33 26.86,318.01 23.94,306.6 23.4,294 27.92,282.93 z" id="path4595"/>

          <path d="m 692.9,275.69 c 8.32,-1.56 11.81,7.87 13.06,14.36 2.44,14.51 1,31.4 -8.94,42.97 -3.1,4.44 -11.93,3.07 -11.44,-2.96 0.32,-8.36 -1.88,-16.52 -5.65,-23.92 8.49,-7.81 11.71,-19.34 12.97,-30.45 z" id="path4597"/>

          <path d="m 57.25,306.09 c 4.82,-2.12 9.12,2.43 11.5,6.13 6.91,11.37 8.67,25.4 6.83,38.43 -1.12,5.52 -2.83,12.38 -8.61,14.72 -4.99,0.98 -8.68,-3.59 -11.01,-7.35 -6.41,-11.2 -8.11,-24.72 -6.37,-37.38 1.07,-5.33 2.57,-11.66 7.66,-14.55 z" id="path4599"/>

          <path d="m 669.28,306.11 c 6.71,-2.7 10.71,5.41 11.97,10.71 3.08,13.22 1.44,27.66 -4.72,39.77 -2.26,4.02 -5.5,8.65 -10.53,8.96 -4.95,-0.5 -7.33,-5.72 -8.7,-9.88 -3.29,-11.36 -2.22,-23.7 1.49,-34.83 2.12,-5.63 4.9,-11.8 10.49,-14.73 z" id="path4601"/>

          <path d="m 78.35,330.51 c 6.51,-2.85 12.02,3.03 15.19,8.03 6.84,11.06 9.99,24.54 8.56,37.47 -0.6,5.78 -3.45,13.11 -10.38,12.9 -3.09,-10.27 -7.27,-21.23 -16.62,-27.4 4.57,-9.64 4.56,-20.63 3.25,-31 z" id="path4603"/>

          <path d="m 638.28,338.33 c 3.15,-4.95 8.58,-10.52 15,-7.93 -1.22,10.42 -1.33,21.45 3.29,31.13 -9.3,6.14 -13.6,17.04 -16.52,27.32 -6.77,0.43 -9.76,-6.64 -10.41,-12.28 -1.57,-13.2 1.56,-27 8.64,-38.24 z" id="path4605"/>

          <path d="m 35.59,351.44 c 0.63,-5.83 3.72,-13.42 10.87,-12.54 2.24,10.39 5.16,21.89 14.3,28.43 -3.75,9.43 -2.55,19.77 -0.92,29.51 -5.76,3.29 -11.49,-1.42 -14.61,-6.07 -7.75,-11.35 -11.19,-25.7 -9.64,-39.33 z" id="path4607"/>

          <path d="m 685.07,339.03 c 6.23,-1.16 9.81,4.98 10.62,10.24 2.32,13.52 -0.88,27.84 -7.9,39.55 -3.26,5.38 -9.16,11.42 -16,8.26 1.72,-9.83 2.83,-20.21 -0.82,-29.76 8.97,-6.59 12.09,-17.9 14.1,-28.29 z" id="path4609"/>

          <path d="m 73.86,363.98 c 14.37,11.82 19.22,33.24 15.03,50.84 -1.01,6.78 -9.43,9.83 -14,4.33 -12.26,-13.04 -16.73,-33.33 -11.78,-50.45 4.12,-0.08 7.91,-1.74 10.75,-4.72 z" id="path4611"/>

          <path d="m 643.22,388.34 c 2.5,-9.22 6.61,-18.74 14.72,-24.37 2.75,2.98 6.45,4.72 10.55,4.68 4.84,15.85 0.86,33.87 -8.65,47.22 -2.98,4.44 -10.23,9.27 -14.53,3.76 -6.09,-9.16 -4.4,-21.14 -2.09,-31.29 z" id="path4613"/>

          <path d="m 92.13,391.82 c 2.93,-0.48 5.73,-1.52 8.3,-2.98 9.59,5.98 14.31,17.04 17.11,27.54 1.92,8.55 3.16,18.16 -0.87,26.3 -1.28,2.91 -4.38,3.81 -7.28,4.14 -3.56,-10.67 -9.04,-21.43 -19.08,-27.32 3.56,-8.78 3.61,-18.5 1.82,-27.68 z" id="path4615"/>

          <path d="m 612.39,427.92 c 1.21,-14.51 6.17,-30.62 18.85,-39.11 2.55,1.48 5.32,2.55 8.25,3.05 -1.81,9.31 -1.42,19 1.77,27.97 -10.28,5.5 -15.35,16.61 -19.06,27.09 -9.27,-0.62 -10.08,-11.86 -9.81,-19 z" id="path4617"/>

          <path d="m 51.7,410.69 c 0.43,-5.26 3.27,-10.52 8.96,-11.25 3.35,9.8 7.89,20.58 17.79,25.34 -4.48,9.97 -2.95,21.31 -0.27,31.55 -5.6,4.08 -11.86,-0.73 -15.25,-5.31 -8.51,-11.4 -12.74,-26.17 -11.23,-40.33 z" id="path4619"/>

          <path d="m 670.96,399.42 c 8,1 9.43,10.02 9.42,16.59 -0.31,13.05 -4.42,26.42 -12.91,36.5 -3.29,4.07 -9.02,7.33 -13.95,3.93 2.56,-10.3 4.31,-21.68 -0.34,-31.67 9.93,-4.71 14.52,-15.52 17.78,-25.35 z" id="path4621"/>

          <path d="m 81.17,425.67 c 2.48,-0.96 4.89,-2.07 7.23,-3.35 7.67,3.18 12.19,10.68 15.43,17.93 4.11,9.73 6.41,20.6 4.56,31.12 -0.83,3.93 -2.86,8.97 -7.48,9.35 -5.8,-0.28 -9.81,-5.36 -12.89,-9.74 -8.05,-13.19 -12.93,-30.43 -6.85,-45.31 z" id="path4623"/>

          <path d="m 628.58,438.6 c 3.2,-6.42 7.35,-13.4 14.43,-15.99 2.46,0.77 4.79,1.93 7.23,2.79 5.55,11.41 2.63,24.86 -1.69,36.19 -3.34,7.51 -7.7,16.09 -15.98,18.94 -4.94,1.3 -8.19,-3.93 -9.03,-8.08 -2.52,-11.41 0.36,-23.37 5.04,-33.85 z" id="path4625"/>

          <path d="m 110.02,449.7 c 4.24,-0.24 7.54,-2.91 9.89,-6.27 12.81,8.65 20.82,23.43 23.09,38.52 0.81,5.66 0.05,14.18 -7.01,15.23 -5.76,-9.5 -12.77,-19.38 -23.89,-22.89 -1.03,-8.16 0.54,-16.58 -2.08,-24.59 z" id="path4627"/>

          <path d="m 589.09,479.1 c 3.02,-13.95 10.52,-27.69 22.72,-35.61 2.27,3.39 5.64,5.86 9.8,6.26 -2.7,8.09 -0.69,16.69 -2.33,24.82 -11.07,3.33 -18.09,13.3 -23.58,22.83 -8.09,-1.96 -7.87,-11.79 -6.61,-18.3 z" id="path4629"/>

          <path d="m 652.51,459.95 c 7.07,2.3 7.32,10.83 6.27,16.95 -2.4,13.14 -9.06,25.86 -19.43,34.44 -3.87,3.23 -10.45,6.08 -14.39,1.42 3.47,-9.22 7.33,-18.76 5.91,-28.87 11.78,-2.15 17.16,-14.19 21.64,-23.94 z" id="path4631"/>

          <path d="m 72.93,477.01 c -1.04,-6.2 -0.89,-14.75 6.27,-17.14 4.32,9.83 9.87,21.91 21.66,23.99 -1.41,10 1.98,19.82 6.15,28.76 -4.27,4.72 -10.98,2.01 -15.03,-1.54 C 81.86,502.49 75.26,490 72.93,477.01 z" id="path4633"/>

          <path d="m 103.84,483.43 c 2.22,-1.89 4.25,-4 6.13,-6.23 8.97,1.33 15.24,8.73 20.02,15.82 5.77,9.19 10.24,19.93 9.36,30.97 -0.23,3.93 -2.75,8.79 -7.34,8.35 -7.57,-0.96 -12.97,-7.26 -17.38,-12.96 -7.21,-10.36 -12.75,-23.08 -10.79,-35.95 z" id="path4635"/>

          <path d="m 595.96,503.97 c 5.05,-11.26 12.62,-24.27 25.79,-26.73 2.51,3.41 7.31,5.86 6.57,10.77 -0.44,15.18 -7.95,30.04 -19.3,40.01 -3.84,3.3 -10.99,6.85 -14.77,1.68 -4.39,-8.05 -1.24,-17.72 1.71,-25.73 z" id="path4637"/>

          <path d="m 563.55,518.6 c 5.28,-9.83 12.7,-19.63 23.66,-23.38 2.16,1.98 4.57,3.67 7.3,4.81 -4.01,8.55 -5.77,17.95 -5.01,27.35 -10.98,3.47 -18.96,12.23 -25.04,21.63 -2.58,-1.05 -5.34,-2.54 -5.89,-5.55 -1.99,-8.54 1.25,-17.25 4.98,-24.86 z" id="path4639"/>

          <path d="m 137.12,499.98 c 2.73,-1.05 5.16,-2.7 7.26,-4.73 14.41,5.18 23.28,19.66 27.85,33.58 1.96,6.71 3.67,17.72 -5.11,20.18 -5.96,-9.34 -13.84,-18.22 -24.83,-21.43 0.55,-9.48 -1.04,-18.99 -5.17,-27.6 z" id="path4641"/>

          <path d="m 102.89,532.13 c -1.33,-6 -1.36,-14.26 5.57,-16.71 5.7,8.54 12.59,18.07 23.42,19.96 -2.18,10.86 2.37,21.56 7.47,30.91 -4.53,5.15 -11.77,2.22 -16.23,-1.43 -10.19,-8.15 -17.33,-20.05 -20.23,-32.73 z" id="path4643"/>

          <path d="m 599.86,535.4 c 10.71,-2.01 17.69,-11.32 23.22,-19.93 6.97,2.16 7.11,10.52 5.73,16.43 -2.89,12.93 -10.18,25.09 -20.68,33.26 -4.37,3.53 -11.44,6.15 -15.76,1.11 5.09,-9.38 9.48,-19.99 7.49,-30.87 z" id="path4645"/>

          <path d="m 134.81,535.3 c 2.12,-1.42 4.02,-3.16 6.25,-4.42 7.09,0.56 12.65,5.85 17.19,10.88 7.57,9.07 13.55,20.25 14.02,32.26 0.21,4.11 -1.31,9.85 -6.24,10.21 -7.06,0.08 -12.66,-5.24 -17.22,-10.04 -8.95,-10.59 -16.74,-24.59 -14,-38.89 z" id="path4647"/>

          <path d="m 573.13,542.08 c 4.66,-5.18 10.35,-10.77 17.7,-11.19 2.14,1.37 4.03,3.09 6.1,4.57 2.51,16.97 -7.52,33.7 -20.1,44.36 -4.51,4.24 -14.78,7.42 -16.83,-0.81 -2.41,-13.5 4.96,-26.7 13.13,-36.93 z" id="path4649"/>

          <path d="m 175.79,545.78 c 13.02,2.71 22.47,13.56 28.99,24.5 4.02,7.47 8.35,17.3 3.03,25.22 -8.33,-7.88 -18.04,-15.28 -29.77,-16.78 -1.31,-2.08 -3.02,-4.11 -3.04,-6.69 -0.55,-7.15 -3.17,-13.92 -6.4,-20.25 2.83,-1.43 5.29,-3.45 7.19,-6 z" id="path4651"/>

          <path d="m 552.61,546.59 c 4.59,-2.2 6.43,4.16 10.46,5.2 -5.59,8.12 -4.58,18.56 -9.26,26.85 -11.74,1.61 -21.62,8.83 -29.9,16.88 -4.96,-7.01 -1.64,-15.97 1.72,-22.89 5.96,-11.07 14.77,-21.79 26.98,-26.04 z" id="path4653"/>

          <path d="m 138.51,585.45 c -1.55,-5.19 -1.68,-11.83 3.41,-15.13 6.21,7.83 13.84,16.6 24.63,16.96 -0.21,10.53 6.48,19.4 13.23,26.82 -0.89,6.43 -8.1,8.13 -13.16,5.26 -13.63,-6.49 -23.68,-19.64 -28.11,-33.91 z" id="path4655"/>

          <path d="m 565.13,587.23 c 10.89,-0.14 18.14,-9.29 24.75,-16.71 6.09,3.84 4.38,12.09 2.4,17.81 -4.99,12.92 -14.31,24.85 -26.97,30.92 -5.15,3.02 -12.41,1.35 -13.51,-5.13 6.86,-7.37 13.54,-16.33 13.33,-26.89 z" id="path4657"/>

          <path d="m 169.49,589.97 c -0.76,-3.56 2.55,-5.7 4.49,-8.11 10.48,-0.93 19.88,5.17 27.47,11.73 7.08,6.55 13.88,14.6 15.4,24.43 0.98,4.38 -2.38,8.94 -6.99,8.73 -9.98,-0.15 -18.71,-6.28 -25.91,-12.69 -6.75,-6.51 -13.32,-14.47 -14.46,-24.09 z" id="path4659"/>

          <path d="m 550.29,582.25 c 4.65,-1.65 9.82,0.24 11.76,4.85 0.89,7.25 -3.33,13.88 -7.45,19.47 -8.3,10.04 -19.75,19.96 -33.44,20.13 -7.28,-0.38 -7.46,-9.36 -4.88,-14.37 6.36,-14.1 19.06,-25.79 34.01,-30.08 z" id="path4661"/>

          <path d="m 213.37,586.67 c 16.06,1.87 30.4,12.69 38.63,26.34 2.65,4.38 3.74,9.96 1.06,14.6 -9.77,-5.92 -20.9,-11.31 -32.67,-9.35 -2.2,-7.55 -5.65,-14.75 -10.97,-20.61 2.62,-3.09 3.8,-6.98 3.95,-10.98 z" id="path4663"/>

          <path d="m 483.37,607.42 c 8.69,-10.59 20.93,-19.31 34.86,-20.75 0.23,3.99 1.43,7.88 3.97,11.02 -5.28,5.85 -8.77,13 -10.87,20.56 -11.71,-1.86 -22.94,3.26 -32.57,9.39 -4.33,-6.83 0.36,-14.65 4.61,-20.22 z" id="path4665"/>

          <path d="m 184.9,618.79 c 8.14,6.16 18.02,12.39 28.71,10.34 1.88,10.02 9.75,17.14 17.19,23.37 1.78,6.08 -5.65,9.26 -10.6,7.99 -14.06,-2.4 -26.35,-11.76 -34.5,-23.2 -3.66,-5.26 -7.26,-13.83 -0.8,-18.5 z" id="path4667"/>

          <path d="m 518.12,629.15 c 10.77,2.07 20.51,-4.37 28.83,-10.35 6.22,5.01 2.57,13.53 -1.23,18.86 -8.11,11.17 -20.16,20.29 -33.93,22.79 -5.29,1.27 -11.46,-1.44 -11.62,-7.49 7.85,-6.19 15.82,-13.6 17.95,-23.81 z" id="path4669"/>

          <path d="m 257.76,619.88 c 13.47,-1.89 26.74,4.13 37.21,12.18 5.13,4.34 10.82,9.78 11.07,16.95 0.07,3.84 -3.79,5.6 -6.82,6.76 -7.03,-3.04 -14.48,-5.65 -22.25,-5.41 -2.99,0.31 -6.29,-0.98 -7.32,-4.01 -3.18,-6.91 -8.67,-12.38 -14.58,-17 1.75,-2.87 2.61,-6.12 2.69,-9.47 z" id="path4671"/>

          <path d="m 439.78,629.77 c 9.85,-6.68 21.83,-11.63 33.94,-9.92 0.3,3.34 1.1,6.63 2.89,9.5 -6.07,4.7 -11.61,10.35 -14.82,17.42 -1.01,2.7 -4.04,3.82 -6.74,3.58 -6.78,-0.2 -13.42,1.6 -19.61,4.23 -4.65,2.79 -11.22,-2.31 -9.71,-7.55 1.85,-7.49 8.03,-12.91 14.05,-17.26 z" id="path4673"/>

          <path d="m 216.24,628.04 c 2.02,-2.56 2.85,-6.93 6.76,-7.11 9.61,-1.13 18.89,3.24 26.83,8.23 7.66,5.23 15.29,11.87 18.22,20.96 1.64,4.03 -0.73,9.03 -5.15,9.71 -9.63,1.71 -19.09,-2.73 -27.12,-7.61 -8.67,-5.78 -17.45,-13.47 -19.54,-24.18 z" id="path4675"/>

          <path d="m 473.58,635.61 c 10.23,-8.9 24,-17.35 38.07,-13.93 1.15,2.19 2.41,4.33 3.75,6.42 -2.99,13.51 -15.33,22.45 -27.07,28.23 -7.28,2.99 -17.89,7.15 -24.19,0.43 -3.18,-8.14 4.08,-15.78 9.44,-21.15 z" id="path4677"/>

          <path d="m 271.71,653.79 c 16.57,-2.63 33.35,6.17 44.29,18.19 3.57,4.06 7.53,11.86 1.67,15.74 -8.79,4.14 -19,0.71 -27.4,-2.94 -9.95,-4.79 -20.1,-11.81 -23.86,-22.7 2.5,-2.24 4.4,-5.04 5.3,-8.29 z" id="path4679"/>

          <path d="m 424.74,663.72 c 10.14,-6.9 22.61,-12.28 35.1,-9.95 1.04,3.18 3.1,5.8 5.19,8.36 -2.48,9 -10.49,15.07 -18.09,19.76 -8.7,4.92 -18.76,8.84 -28.92,7.33 -3.96,-0.44 -7.98,-3.88 -6.94,-8.2 1.55,-7.52 7.8,-12.9 13.66,-17.3 z" id="path4681"/>

          <path d="m 233.46,669.41 c -3.28,-4.53 -2.06,-11.13 3.51,-13.04 8.15,4.34 17.31,7.83 26.7,6.36 3.42,10.82 13.04,17.93 22.48,23.3 -2.98,7.45 -12.31,6.92 -18.81,5.57 -13.27,-3.16 -26.49,-10.38 -33.88,-22.19 z" id="path4683"/>

          <path d="m 492.5,657.5 c 3.41,-2.27 7.61,1.99 7.61,5.5 -0.26,5.92 -4.51,10.67 -8.58,14.58 -9.75,8.53 -22.35,14.8 -35.52,14.76 -4.48,0.23 -8.69,-2.12 -10.55,-6.23 9.41,-5.45 19.11,-12.5 22.52,-23.35 8.55,1.3 16.95,-1.5 24.52,-5.26 z" id="path4685"/>

        </g>
          <path style="fill:#fdfdfc" d="m 327.76,717.95 c 27.34,-10.84 53.87,-24.26 82.24,-32.2 -3.57,2.48 -7.7,3.9 -11.63,5.66 -18.18,7.38 -34.31,18.84 -49.92,30.54 -6.91,-1.3 -13.82,-2.57 -20.69,-4 z" id="path4688"/>

          <path style="fill:#fafcfb" d="m 324.51,686.8 c 13.13,3.95 25.83,9.18 38.43,14.57 -1.66,0.69 -3.32,1.4 -4.98,2.1 -10.47,-6.89 -22.18,-11.37 -33.45,-16.67 z" id="path4691"/>

          <path style="fill:#fdfdfd" d="m 367.69,709.84 c 2.06,-1.32 4.12,-2.63 6.19,-3.94 9.84,4.17 19.76,8.15 29.56,12.42 -6.33,1.05 -12.59,2.92 -18.99,3.37 -5.78,-3.65 -11.03,-8.11 -16.76,-11.85 z" id="path4694"/>

        </g>

    </g>

    <g id="g4903" transform="matrix(0.72337271,0,0,0.72337271,-671.70647,406.70287)">

      <path id="path4888" d="m 1235.4166,418.00669 365.6752,-1.01015" style="fill:none;stroke:#000000;stroke-width:15;stroke-linecap:butt;stroke-linejoin:miter;stroke-miterlimit:4;stroke-opacity:1;stroke-dasharray:none"/>

      <path id="path4890" d="m 1241.4775,431.13867 353.5534,-2.0203" style="fill:none;stroke:#000000;stroke-width:4.0999999;stroke-linecap:butt;stroke-linejoin:miter;stroke-miterlimit:4;stroke-opacity:1;stroke-dasharray:none"/>

      <g id="g4898">

        <path style="fill:none;stroke:#000000;stroke-width:5;stroke-linecap:butt;stroke-linejoin:miter;stroke-miterlimit:4;stroke-opacity:1;stroke-dasharray:none" d="m 1337.442,511.93057 0,-38.3858 c -19.8381,-29.46365 -41.7986,-39.16242 -79.8021,-21.71827" id="path4892"/>

        <path style="fill:none;stroke:#000000;stroke-width:5;stroke-linecap:butt;stroke-linejoin:miter;stroke-miterlimit:4;stroke-opacity:1;stroke-dasharray:none" d="m 1368.2516,521.52702 -1.0101,-50.00255 c 35.6483,-46.37222 78.5963,-30.21105 98.4898,1.01015 l 0.5051,48.9924" id="path4894"/>

        <path style="fill:none;stroke:#000000;stroke-width:5;stroke-linecap:butt;stroke-linejoin:miter;stroke-miterlimit:4;stroke-opacity:1;stroke-dasharray:none" d="m 1496.0359,512.43565 0.5051,-39.90103 c 24.6328,-36.63295 52.1754,-33.21626 78.2868,-20.20305" id="path4896"/>

      </g>

    </g>

    <g id="g4522" transform="matrix(0.4493316,0,0,0.4493316,146.86669,424.23229)">

        <path id="path4509" d="m 428.12,10.07 c 20.57,-1.28 41.19,-1.27 61.75,0 0.02,19.61 -1.01,39.21 -0.88,58.83 25.39,5.02 50.95,9.19 76.41,13.87 6.19,-18.56 12.68,-37.02 19,-55.53 19.75,5.57 38.92,13.03 57.7,21.26 -6.47,18.51 -13.58,36.8 -20.27,55.23 22.38,12.92 44.65,26.05 66.91,39.2 12.22,-15.04 24.25,-30.25 36.49,-45.27 16.69,12.18 32.54,25.61 47.11,40.25 -12.55,14.74 -25.16,29.46 -37.4,44.45 16.87,19.77 33.03,40.16 49.9,59.94 16.26,-10.31 32.92,-19.98 49.34,-30.04 11.44,17.22 21.86,35.15 30.77,53.81 -16.3,10.11 -33.6,19.28 -50.22,29.12 8.88,24.57 17.54,49.23 26.54,73.75 18.9,-3.97 37.91,-7.47 56.88,-11.09 5.07,20.28 8.62,40.96 10.78,61.75 -19.13,2.74 -38.14,6.26 -57.2,9.48 -0.05,24.98 0.01,49.96 -0.05,74.94 0.22,1.17 -0.62,3.75 1.36,3.7 18.69,2.98 37.37,6.03 56.02,9.23 -2.21,20.56 -5.85,40.92 -10.51,61.06 -19.25,-2.39 -38.19,-7.21 -57.36,-10.27 -8.82,24.6 -17.81,49.14 -26.37,73.81 17.01,9.19 33.67,19.03 50.54,28.49 -8.84,18.8 -19.4,36.75 -30.75,54.14 -16.74,-9.88 -33.26,-20.12 -50.06,-29.88 -16.35,20.19 -33.19,40 -49.54,60.19 12.75,14.61 25.05,29.62 37.83,44.21 -14.54,14.74 -30.6,27.87 -46.97,40.49 -12.37,-15.13 -24.61,-30.36 -36.91,-45.54 -22.34,13.11 -44.74,26.09 -66.99,39.34 6.95,18.32 13.8,36.69 20.61,55.07 -18.58,8.82 -38.02,15.75 -57.71,21.65 -6.39,-18.63 -13.03,-37.17 -19.28,-55.84 -25.53,4.34 -50.98,9.11 -76.48,13.59 0.5,19.82 1.13,39.64 0.86,59.47 -20.4,1.3 -40.85,1.37 -61.25,0.03 0.38,-19.84 0.34,-39.69 0.21,-59.54 -25.29,-4.56 -50.61,-9.01 -75.89,-13.61 -6.55,18.68 -12.8,37.47 -19.39,56.13 -19.68,-5.91 -38.98,-13.03 -57.73,-21.43 6.74,-18.53 13.73,-36.98 20.45,-55.52 -22.3,-12.98 -44.5,-26.7 -67.03,-38.94 -12.38,14.94 -24.29,30.28 -36.62,45.27 -16.72,-12.12 -32.55,-25.57 -47.1,-40.22 12.45,-14.94 25.72,-29.57 37.44,-44.91 -16.44,-20.01 -32.81,-40.12 -49.59,-59.84 -16.59,10.18 -33.13,20.53 -50.07,30.11 -11.13,-17.47 -21.97,-35.23 -30.57,-54.11 16.99,-9.29 33.58,-19.3 50.53,-28.66 -8.25,-24.82 -17.44,-49.37 -26.34,-73.97 -19.03,3.98 -38.23,7.17 -57.21,11.33 -5.2,-20.27 -8.59,-40.98 -10.86,-61.77 19.24,-3.18 38.44,-6.55 57.69,-9.66 0.15,-26.14 -0.05,-52.29 0.11,-78.43 -19.28,-3.13 -38.53,-6.46 -57.83,-9.45 2.2,-20.74 5.9,-41.29 10.65,-61.59 19.15,3.48 38.31,6.98 57.36,10.96 9,-24.56 17.92,-49.17 26.45,-73.88 -16.84,-9.53 -33.56,-19.28 -50.53,-28.59 8.7,-18.9 19.3,-36.92 30.86,-54.21 16.51,9.78 32.89,19.78 49.39,29.58 1.24,-0.06 1.82,-1.5 2.68,-2.23 15.74,-19.31 31.88,-38.3 47.49,-57.71 -12.71,-14.63 -25.11,-29.52 -37.72,-44.23 14.46,-14.63 30.44,-27.62 46.69,-40.19 12.86,14.68 24.78,30.21 37.08,45.38 22.27,-13.18 44.65,-26.16 66.95,-39.29 -6.65,-18.46 -13.88,-36.72 -20.44,-55.21 18.75,-8.34 37.98,-15.72 57.74,-21.28 6.49,18.56 12.81,37.18 19.41,55.71 25.26,-5.08 50.78,-8.93 76.04,-14 0.28,-19.64 -0.7,-39.26 -0.9,-58.89 m 11.33,118.59 c -69.47,3.78 -137.31,30.73 -190.92,75.01 -64.73,52.73 -108.8,130.08 -121.07,212.68 -3.75,23.01 -4.41,46.37 -3.5,69.65 3.66,79.69 36.6,157.73 91.19,215.94 52.6,57.04 125.62,95.16 202.76,104.43 78.41,10.25 160.21,-9.42 225.66,-53.81 78.13,-52.03 132.67,-137.8 146.73,-230.61 4.68,-29.57 5.27,-59.83 2.22,-89.59 C 783.45,340.29 734.57,253.05 661,197 598.58,148.55 518.34,123.55 439.45,128.66 z" style="fill:#ffffff"/>

        <path id="path4512" d="m 421.29,2.25 c 12.26,0.04 24.42,-1.96 36.7,-1.29 12.97,-0.68 25.8,1.28 38.74,1.35 2.93,19.82 0.04,39.95 0.74,59.91 20.81,3.63 41.52,8.12 62.47,10.82 6.56,-18.37 12.34,-37.05 19.48,-55.2 25.26,5.51 49.23,15.9 72.82,26.37 -5.97,18.82 -14.02,37.03 -20.08,55.74 17.77,11.4 36.53,21.29 54.66,32.18 12.35,-15.29 24.78,-30.52 37.02,-45.9 20.2,14.86 39.61,30.82 57.36,48.58 1.21,1.01 2.52,2.94 0.91,4.23 -12.37,14.17 -24.18,28.79 -36.41,43.09 2.32,3.05 5.03,5.84 6.78,9.29 12.24,12.38 22.21,26.85 33.7,39.93 17.29,-9.14 33.2,-20.78 50.62,-29.69 14.16,20.06 26.22,41.55 37,63.59 0.6,1.46 2.09,3.71 0.39,4.96 -16.15,10.14 -33.12,18.92 -49.44,28.78 7.38,19.97 14.29,40.12 21.63,60.11 19.41,-2.86 38.55,-7.41 57.9,-10.64 6.74,24.52 10.34,49.74 13.72,74.89 l 0,2.36 c -19.21,4.34 -38.9,6.35 -58.21,10.32 -0.62,21.33 0.97,42.8 -0.81,64.04 19.58,3.92 39.38,6.53 59.02,10.04 l 0,2.04 c -2.97,25.48 -6.96,50.9 -13.59,75.72 -16.51,-3.34 -33.14,-5.95 -49.6,-9.52 -2.4,-0.37 -4.87,-0.68 -6.8,-2.26 -3.48,3.44 -3.79,8.69 -6,12.88 -5.3,16.38 -11.62,32.42 -17.12,48.74 16.77,9.48 33.61,18.83 50.24,28.54 -0.2,2.12 -0.58,4.26 -1.61,6.16 -6.64,13.2 -13.48,26.32 -21.13,38.97 -5.49,5.52 -6.77,14 -12.91,19.17 -0.82,6.11 -7.14,2.2 -10.14,0.11 -8.22,-5.54 -17.86,-9.46 -24.95,-16.33 -6.68,-1.41 -11.89,-6.25 -17.8,-9.38 -13.54,16.46 -27.48,32.61 -40.75,49.23 7.41,10.11 17.04,18.53 23.55,29.29 5.14,3.53 8.54,8.94 12.66,13.54 2.04,1.86 0.55,4.44 -1.27,5.75 -17.97,16.95 -36.25,33.42 -56.68,47.36 -12.42,-15.2 -24.46,-30.79 -37.24,-45.68 -18.26,10.68 -36.56,21.3 -54.73,32.11 2.9,8.98 7.41,17.49 9.3,26.75 4.85,9.31 7.72,19.59 11.63,29.34 -23.83,10.73 -48.27,20.22 -73.51,27.07 -4.66,-15.13 -10.96,-29.79 -14.98,-45.07 -2.1,-3.61 -3.1,-7.68 -4.72,-11.48 -20.96,3.58 -41.83,7.63 -62.82,10.95 1.33,17.55 1.48,35.45 0.24,52.99 2.01,2.59 0.76,5.74 -1.66,7.54 -24.74,1.95 -49.64,1.64 -74.41,0.05 -1.94,-20.03 0.34,-40.37 -0.39,-60.53 -20.84,-3.5 -41.59,-7.55 -62.44,-10.95 -6.4,18.95 -12.99,37.8 -19.46,56.73 -25.04,-7.1 -49.61,-15.97 -73.12,-27.19 6.28,-18.95 14.25,-37.34 20.31,-56.34 -18.14,-10.58 -36.22,-21.24 -54.31,-31.89 -2.02,2.15 -4.05,4.31 -6.45,6.04 -8.38,13.44 -19.55,25.02 -29.13,37.66 -1.89,3.46 -5.17,0.29 -7.23,-1.19 -19.12,-14.66 -37.41,-30.08 -54.46,-47.13 12.5,-15.36 25.61,-30.27 38.17,-45.54 -13.44,-16.58 -27.25,-32.85 -40.84,-49.33 -10.74,6.53 -21.47,13.1 -32.29,19.51 -6.68,2.81 -11.74,9.49 -19.43,9.63 -3.78,-6.53 -9.41,-12.17 -11.5,-19.54 -3.83,-2.82 -5.4,-7.51 -7.77,-11.45 -6,-9.9 -11.13,-20.29 -16.35,-30.6 -0.71,-1.85 -2.2,-3.99 -1.13,-5.96 16.56,-9.8 33.39,-19.16 50.06,-28.78 -6.81,-20.33 -14.49,-40.36 -21.62,-60.58 -19.6,2.79 -38.77,8.23 -58.41,10.81 C 10.17,573.1 5.56,558.22 4.67,542.88 1.58,533.55 2.15,523.41 0,513.85 l 0,-1.09 c 0.36,-0.63 1.08,-1.89 1.44,-2.52 19.02,-3.28 38.19,-5.98 57.06,-9.91 0.42,-21.03 -0.66,-42.9 0.58,-64.21 C 39.44,432.51 19.3,430.63 0,425.66 l 0,-1.84 c 3.02,-25.22 7.11,-50.34 13.4,-74.97 19.34,3.04 38.66,6.88 57.81,11.02 2.6,-3.55 3.41,-7.9 4.73,-12 5.92,-16.22 11.67,-32.5 17.54,-48.74 -16.73,-9.72 -33.56,-19.29 -50.49,-28.65 -0.11,-2.86 1.13,-5.45 2.46,-7.9 10.42,-21.14 22.09,-41.72 35.74,-60.94 17.15,9.47 33.56,20.28 50.66,29.84 13.88,-16.02 26.75,-32.9 40.79,-48.74 -11.76,-14.36 -23.72,-28.52 -35.91,-42.52 -1.07,-1.17 -2.61,-2.91 -1,-4.36 17.96,-18.19 37.74,-34.5 58.34,-49.6 12.49,15.39 24.79,30.98 37.61,46.11 17.93,-11.24 36.59,-21.24 54.57,-32.41 -6.81,-18.59 -14.36,-36.94 -20.5,-55.76 23.6,-10.64 47.79,-20.99 73.15,-26.34 6.42,18.4 12.95,36.76 19.26,55.2 21,-2.56 41.72,-7.25 62.58,-10.83 0.07,-18.43 -0.92,-36.85 -0.75,-55.27 -0.11,-1.69 0.66,-3.2 1.3,-4.71 m 6.83,7.82 c 0.2,19.63 1.18,39.25 0.9,58.89 -25.26,5.07 -50.78,8.92 -76.04,14 -6.6,-18.53 -12.92,-37.15 -19.41,-55.71 -19.76,5.56 -38.99,12.94 -57.74,21.28 6.56,18.49 13.79,36.75 20.44,55.21 -22.3,13.13 -44.68,26.11 -66.95,39.29 -12.3,-15.17 -24.22,-30.7 -37.08,-45.38 -16.25,12.57 -32.23,25.56 -46.69,40.19 12.61,14.71 25.01,29.6 37.72,44.23 -15.61,19.41 -31.75,38.4 -47.49,57.71 -0.86,0.73 -1.44,2.17 -2.68,2.23 -16.5,-9.8 -32.88,-19.8 -49.39,-29.58 -11.56,17.29 -22.16,35.31 -30.86,54.21 16.97,9.31 33.69,19.06 50.53,28.59 -8.53,24.71 -17.45,49.32 -26.45,73.88 -19.05,-3.98 -38.21,-7.48 -57.36,-10.96 -4.75,20.3 -8.45,40.85 -10.65,61.59 19.3,2.99 38.55,6.32 57.83,9.45 -0.16,26.14 0.04,52.29 -0.11,78.43 -19.25,3.11 -38.45,6.48 -57.69,9.66 2.27,20.79 5.66,41.5 10.86,61.77 18.98,-4.16 38.18,-7.35 57.21,-11.33 8.9,24.6 18.09,49.15 26.34,73.97 -16.95,9.36 -33.54,19.37 -50.53,28.66 8.6,18.88 19.44,36.64 30.57,54.11 16.94,-9.58 33.48,-19.93 50.07,-30.11 16.78,19.72 33.15,39.83 49.59,59.84 -11.72,15.34 -24.99,29.97 -37.44,44.91 14.55,14.65 30.38,28.1 47.1,40.22 12.33,-14.99 24.24,-30.33 36.62,-45.27 22.53,12.24 44.73,25.96 67.03,38.94 -6.72,18.54 -13.71,36.99 -20.45,55.52 18.75,8.4 38.05,15.52 57.73,21.43 6.59,-18.66 12.84,-37.45 19.39,-56.13 25.28,4.6 50.6,9.05 75.89,13.61 0.13,19.85 0.17,39.7 -0.21,59.54 20.4,1.34 40.85,1.27 61.25,-0.03 0.27,-19.83 -0.36,-39.65 -0.86,-59.47 25.5,-4.48 50.95,-9.25 76.48,-13.59 6.25,18.67 12.89,37.21 19.28,55.84 19.69,-5.9 39.13,-12.83 57.71,-21.65 -6.81,-18.38 -13.66,-36.75 -20.61,-55.07 22.25,-13.25 44.65,-26.23 66.99,-39.34 12.3,15.18 24.54,30.41 36.91,45.54 16.37,-12.62 32.43,-25.75 46.97,-40.49 -12.78,-14.59 -25.08,-29.6 -37.83,-44.21 16.35,-20.19 33.19,-40 49.54,-60.19 16.8,9.76 33.32,20 50.06,29.88 11.35,-17.39 21.91,-35.34 30.75,-54.14 -16.87,-9.46 -33.53,-19.3 -50.54,-28.49 8.56,-24.67 17.55,-49.21 26.37,-73.81 19.17,3.06 38.11,7.88 57.36,10.27 4.66,-20.14 8.3,-40.5 10.51,-61.06 -18.65,-3.2 -37.33,-6.25 -56.02,-9.23 -1.98,0.05 -1.14,-2.53 -1.36,-3.7 0.06,-24.98 0,-49.96 0.05,-74.94 19.06,-3.22 38.07,-6.74 57.2,-9.48 -2.16,-20.79 -5.71,-41.47 -10.78,-61.75 -18.97,3.62 -37.98,7.12 -56.88,11.09 -9,-24.52 -17.66,-49.18 -26.54,-73.75 16.62,-9.84 33.92,-19.01 50.22,-29.12 -8.91,-18.66 -19.33,-36.59 -30.77,-53.81 -16.42,10.06 -33.08,19.73 -49.34,30.04 -16.87,-19.78 -33.03,-40.17 -49.9,-59.94 12.24,-14.99 24.85,-29.71 37.4,-44.45 -14.57,-14.64 -30.42,-28.07 -47.11,-40.25 -12.24,15.02 -24.27,30.23 -36.49,45.27 -22.26,-13.15 -44.53,-26.28 -66.91,-39.2 6.69,-18.43 13.8,-36.72 20.27,-55.23 -18.78,-8.23 -37.95,-15.69 -57.7,-21.26 -6.32,18.51 -12.81,36.97 -19,55.53 -25.46,-4.68 -51.02,-8.85 -76.41,-13.87 -0.13,-19.62 0.9,-39.22 0.88,-58.83 -20.56,-1.27 -41.18,-1.28 -61.75,0 z" />

        <path id="path4514" d="m 439.45,128.66 c 78.89,-5.11 159.13,19.89 221.55,68.34 73.57,56.05 122.45,143.29 131.52,235.36 3.05,29.76 2.46,60.02 -2.22,89.59 -14.06,92.81 -68.6,178.58 -146.73,230.61 -65.45,44.39 -147.25,64.06 -225.66,53.81 C 340.77,797.1 267.75,758.98 215.15,701.94 160.56,643.73 127.62,565.69 123.96,486 c -0.91,-23.28 -0.25,-46.64 3.5,-69.65 12.27,-82.6 56.34,-159.95 121.07,-212.68 53.61,-44.28 121.45,-71.23 190.92,-75.01 m -168.61,68.15 c -45.87,32.9 -83.29,77.68 -107.32,128.78 -38.14,80.25 -42.32,175.79 -11.2,259.02 0.42,1.24 1.97,1.42 2.94,2.11 0.08,11.57 7.44,21.56 11.92,31.87 0.74,0.05 2.23,0.17 2.97,0.23 -1.23,4.79 3.87,7.17 4.56,11.51 1.97,7.19 6.28,13.31 10.73,19.16 5,10.49 13.15,18.99 19.27,28.8 2.79,4.46 6.85,7.83 10.49,11.55 30.03,34.28 67.38,62.07 108.66,81.33 4.93,1.33 9.74,2.9 13.98,5.93 60.42,24.68 128.53,30.53 192.14,15.76 5.98,-2.93 12.8,-2.65 19.01,-4.83 10.51,-3.25 21.04,-6.54 31.13,-10.94 3.08,-2.85 6.96,-4.9 11.26,-4.81 42.49,-18.99 80.64,-47.55 111.41,-82.45 1.8,-1.69 2.43,-4.16 3.97,-6.01 9.14,-8.03 15.5,-18.6 22.68,-28.3 4.58,-10.02 12.46,-18.06 16.73,-28.25 1.78,-3.23 2.05,-7.57 5.49,-9.61 15.35,-32.07 26.56,-66.3 31.25,-101.61 10.86,-73.49 -3.98,-150.42 -41.17,-214.73 -19.67,-34.14 -45.6,-64.87 -75.99,-90.07 -1.87,-1.44 -3.83,-2.84 -5.14,-4.84 -9.21,-5.58 -17.08,-13.23 -26.52,-18.46 -43.58,-28.21 -94,-45.9 -145.74,-50.41 -76.52,-7.42 -155.22,14.28 -217.51,59.27 z" />

    </g>

    <g id="g4983" transform="matrix(0.71089942,0,0,0.71089942,-654.39032,411.23921)">

      <path id="path4911" d="m 1222.2846,392.22749 388.9087,0" style="fill:none;stroke:#000000;stroke-width:3;stroke-linecap:butt;stroke-linejoin:miter;stroke-miterlimit:4;stroke-opacity:1;stroke-dasharray:none"/>

      <g id="g4931">

        <path style="fill:none;stroke:#000000;stroke-width:3;stroke-linecap:butt;stroke-linejoin:miter;stroke-miterlimit:4;stroke-opacity:1;stroke-dasharray:none" d="m 1316.2288,415.96608 0,-176.7767 -50.0026,0.50508 0.5051,152.53303" id="path4913"/>

        <path style="fill:none;stroke:#000000;stroke-width:3;stroke-linecap:butt;stroke-linejoin:miter;stroke-miterlimit:4;stroke-opacity:1;stroke-dasharray:none" d="m 1289.4597,239.18938 1.5153,152.53304" id="path4915"/>

        <path style="fill:none;stroke:#000000;stroke-width:3;stroke-linecap:butt;stroke-linejoin:miter;stroke-miterlimit:4;stroke-opacity:1;stroke-dasharray:none" d="m 1265.7211,259.89751 51.0127,0" id="path4917"/>

        <path style="fill:none;stroke:#000000;stroke-width:3;stroke-linecap:butt;stroke-linejoin:miter;stroke-miterlimit:4;stroke-opacity:1;stroke-dasharray:none" d="m 1266.2262,276.56503 50.5076,0.50507" id="path4919"/>

        <path style="fill:none;stroke:#000000;stroke-width:3;stroke-linecap:butt;stroke-linejoin:miter;stroke-miterlimit:4;stroke-opacity:1;stroke-dasharray:none" d="m 1266.7313,296.76808 50.0025,0" id="path4921"/>

        <path style="fill:none;stroke:#000000;stroke-width:3;stroke-linecap:butt;stroke-linejoin:miter;stroke-miterlimit:4;stroke-opacity:1;stroke-dasharray:none" d="m 1266.7313,316.46605 49.4975,0.50508" id="path4923"/>

        <path style="fill:none;stroke:#000000;stroke-width:3;stroke-linecap:butt;stroke-linejoin:miter;stroke-miterlimit:4;stroke-opacity:1;stroke-dasharray:none" d="m 1266.7313,334.6488 49.4975,0" id="path4925"/>

        <path style="fill:none;stroke:#000000;stroke-width:3;stroke-linecap:butt;stroke-linejoin:miter;stroke-miterlimit:4;stroke-opacity:1;stroke-dasharray:none" d="m 1266.2262,351.82139 50.0026,0.50508" id="path4927"/>

        <path style="fill:none;stroke:#000000;stroke-width:3;stroke-linecap:butt;stroke-linejoin:miter;stroke-miterlimit:4;stroke-opacity:1;stroke-dasharray:none" d="m 1266.2262,371.01429 49.4975,0" id="path4929"/>

      </g>

      <g transform="matrix(-1,0,0,1,2832.993,-0.989847)" id="g4942">

        <path id="path4944" d="m 1316.2288,415.96608 0,-176.7767 -50.0026,0.50508 0.5051,152.53303" style="fill:none;stroke:#000000;stroke-width:3;stroke-linecap:butt;stroke-linejoin:miter;stroke-miterlimit:4;stroke-opacity:1;stroke-dasharray:none"/>

        <path id="path4946" d="m 1289.4597,239.18938 1.5153,152.53304" style="fill:none;stroke:#000000;stroke-width:3;stroke-linecap:butt;stroke-linejoin:miter;stroke-miterlimit:4;stroke-opacity:1;stroke-dasharray:none"/>

        <path id="path4948" d="m 1265.7211,259.89751 51.0127,0" style="fill:none;stroke:#000000;stroke-width:3;stroke-linecap:butt;stroke-linejoin:miter;stroke-miterlimit:4;stroke-opacity:1;stroke-dasharray:none"/>

        <path id="path4950" d="m 1266.2262,276.56503 50.5076,0.50507" style="fill:none;stroke:#000000;stroke-width:3;stroke-linecap:butt;stroke-linejoin:miter;stroke-miterlimit:4;stroke-opacity:1;stroke-dasharray:none"/>

        <path id="path4952" d="m 1266.7313,296.76808 50.0025,0" style="fill:none;stroke:#000000;stroke-width:3;stroke-linecap:butt;stroke-linejoin:miter;stroke-miterlimit:4;stroke-opacity:1;stroke-dasharray:none"/>

        <path id="path4954" d="m 1266.7313,316.46605 49.4975,0.50508" style="fill:none;stroke:#000000;stroke-width:3;stroke-linecap:butt;stroke-linejoin:miter;stroke-miterlimit:4;stroke-opacity:1;stroke-dasharray:none"/>

        <path id="path4956" d="m 1266.7313,334.6488 49.4975,0" style="fill:none;stroke:#000000;stroke-width:3;stroke-linecap:butt;stroke-linejoin:miter;stroke-miterlimit:4;stroke-opacity:1;stroke-dasharray:none"/>

        <path id="path4958" d="m 1266.2262,351.82139 50.0026,0.50508" style="fill:none;stroke:#000000;stroke-width:3;stroke-linecap:butt;stroke-linejoin:miter;stroke-miterlimit:4;stroke-opacity:1;stroke-dasharray:none"/>

        <path id="path4960" d="m 1266.2262,371.01429 49.4975,0" style="fill:none;stroke:#000000;stroke-width:3;stroke-linecap:butt;stroke-linejoin:miter;stroke-miterlimit:4;stroke-opacity:1;stroke-dasharray:none"/>

      </g>

      <path id="path4971" d="m 1315.2186,341.21479 203.0407,0" style="fill:none;stroke:#000000;stroke-width:3;stroke-linecap:butt;stroke-linejoin:miter;stroke-miterlimit:4;stroke-opacity:1;stroke-dasharray:none"/>

      <path id="path4973" d="m 1316.2288,367.47876 201.5254,-0.50508" style="fill:none;stroke:#000000;stroke-width:3;stroke-linecap:butt;stroke-linejoin:miter;stroke-miterlimit:4;stroke-opacity:1;stroke-dasharray:none"/>

      <path id="path4975" d="m 1339.9674,414.45085 0.505,-72.73098" style="fill:none;stroke:#000000;stroke-width:3;stroke-linecap:butt;stroke-linejoin:miter;stroke-miterlimit:4;stroke-opacity:1;stroke-dasharray:none"/>

      <path id="path4977" d="m 1371.7872,341.71987 1.0101,70.2056" style="fill:none;stroke:#000000;stroke-width:3;stroke-linecap:butt;stroke-linejoin:miter;stroke-miterlimit:4;stroke-opacity:1;stroke-dasharray:none"/>

      <path id="path4979" d="m 1456.1349,341.21479 0.5051,71.72083" style="fill:none;stroke:#000000;stroke-width:3;stroke-linecap:butt;stroke-linejoin:miter;stroke-miterlimit:4;stroke-opacity:1;stroke-dasharray:none"/>

      <path id="path4981" d="m 1490.9852,341.21479 0,71.72083" style="fill:none;stroke:#000000;stroke-width:3;stroke-linecap:butt;stroke-linejoin:miter;stroke-miterlimit:4;stroke-opacity:1;stroke-dasharray:none"/>

    </g>

    <g id="g5030" transform="matrix(0.71089942,0,0,0.71089942,-654.39032,409.23921)">

      <path style="fill:none;stroke:#555555;stroke-width:3.62770557;stroke-miterlimit:4;stroke-opacity:1;stroke-dasharray:none" id="path5022" d="m 1440.9826,223.53201 c 0,46.86292 -11.0804,84.85282 -24.7487,84.85282 -13.6684,0 -24.7488,-37.9899 -24.7488,-84.85282 0,-46.86291 11.0804,-84.85281 24.7488,-84.85281 13.6064,0 24.661,37.65933 24.7482,84.30909" transform="matrix(0.5068665,0.81254414,-0.82467457,0.51443348,882.71144,-1040.3397)"/>

      <path d="m 1426.3354,138.6792 c 0,5.57892 -4.5226,10.10152 -10.1015,10.10152 -5.5789,0 -10.1015,-4.5226 -10.1015,-10.10152 0,-5.57892 4.5226,-10.10153 10.1015,-10.10153 5.5536,0 10.0657,4.48326 10.1013,10.0368" id="path5016" style="fill:#000000;fill-opacity:1;stroke:#000000;stroke-width:3;stroke-miterlimit:4;stroke-opacity:1;stroke-dasharray:none" transform="translate(-72.225907,129.29953)"/>

      <path transform="matrix(0.47669694,-0.83060318,0.84300321,0.48381353,553.16426,1293.5857)" d="m 1440.9826,223.53201 c 0,46.86292 -11.0804,84.85282 -24.7487,84.85282 -13.6684,0 -24.7488,-37.9899 -24.7488,-84.85282 0,-46.86291 11.0804,-84.85281 24.7488,-84.85281 13.6064,0 24.661,37.65933 24.7482,84.30909" id="path5026" style="fill:none;stroke:#555555;stroke-width:3.62770557;stroke-miterlimit:4;stroke-opacity:1;stroke-dasharray:none"/>

      <path transform="translate(73.741136,129.29953)" style="fill:#000000;fill-opacity:1;stroke:#000000;stroke-width:3;stroke-miterlimit:4;stroke-opacity:1;stroke-dasharray:none" id="path5014" d="m 1426.3354,138.6792 c 0,5.57892 -4.5226,10.10152 -10.1015,10.10152 -5.5789,0 -10.1015,-4.5226 -10.1015,-10.10152 0,-5.57892 4.5226,-10.10153 10.1015,-10.10153 5.5536,0 10.0657,4.48326 10.1013,10.0368"/>

      <path transform="matrix(0.95767511,0,0,0.9719722,60.929992,8.6433475)" d="m 1440.9826,223.53201 c 0,46.86292 -11.0804,84.85282 -24.7487,84.85282 -13.6684,0 -24.7488,-37.9899 -24.7488,-84.85282 0,-46.86291 11.0804,-84.85281 24.7488,-84.85281 13.6064,0 24.661,37.65933 24.7482,84.30909" id="path5028" style="fill:none;stroke:#555555;stroke-width:3.62770557;stroke-miterlimit:4;stroke-opacity:1;stroke-dasharray:none"/>

      <path d="m 1426.3354,138.6792 c 0,5.57892 -4.5226,10.10152 -10.1015,10.10152 -5.5789,0 -10.1015,-4.5226 -10.1015,-10.10152 0,-5.57892 4.5226,-10.10153 10.1015,-10.10153 5.5536,0 10.0657,4.48326 10.1013,10.0368" id="path5012" style="fill:#000000;fill-opacity:1;stroke:#000000;stroke-width:3;stroke-miterlimit:4;stroke-opacity:1;stroke-dasharray:none"/>

    </g>

    <text xml:space="preserve" style="font-size:32.24957275px;font-weight:bold;line-height:125%;letter-spacing:0px;word-spacing:0px;fill:#000000;fill-opacity:1;stroke:none;font-family:Arial" x="42.67593" y="320.22382" id="text5179" transform="scale(0.96607988,1.0351111)"><tspan id="tspan5181" x="42.67593" y="320.22382">YANGON TECHNOLOGICAL UNIVERSITY</tspan></text>

    <g id="g3450" transform="matrix(0.43991552,0,0,0.43991552,69.332274,208.83487)">

        <path id="path3398" d="m 522.14,65.47 c 4.36,-0.05 -1.63,4.64 0,0 z" style="fill:#ffffff"/>

      <g style="fill:#201e1f">

        <path id="path3401" d="m 95.86,0 5.28,0 c 7.13,1.63 14.42,6.13 16.32,13.63 1.74,4.25 -2.63,9.78 -7.22,8.16 -3.83,-1.23 -2.13,-6.8 -5.53,-8.5 -4.27,-2.75 -11.83,-2.85 -13.9,2.65 -1.26,4.62 1.79,9.18 5.1,12.16 4.4,5.11 12.81,5.2 15.54,11.89 -1.58,2.62 -3.46,6.94 -7.28,5.88 C 99.59,44.1 95.55,41.18 91.35,38.67 83.48,34.22 79.53,24.7 79.96,15.92 80.78,7.71 87.88,1.25 95.86,0 z" />

        <path id="path3403" d="m 282.86,0 5.29,0 c 7.1,1.7 14.4,6.16 16.26,13.68 1.53,4.21 -2.55,9.76 -7.16,8.11 -4,-1.34 -2.19,-7.4 -6.2,-8.84 -4.74,-2.97 -13.4,-1.69 -13.68,5.01 0.92,9.51 10.42,14.01 17.95,17.74 5.17,2.86 1.05,11.27 -4.15,10.22 -4.59,-1.81 -8.62,-4.73 -12.84,-7.23 C 269.96,33.88 265.84,23.44 267.17,14.1 268.89,6.69 275.47,1.22 282.86,0 z" />

        <path id="path3405" d="m 471.05,0 6.07,0 c 7.32,1.8 14.92,6.65 16.27,14.62 0.94,3.98 -3.02,8.43 -7.12,7.27 -4.33,-1.1 -2.14,-7.46 -6.25,-8.88 -4.75,-3.04 -13.62,-1.86 -13.82,4.98 0.83,9.19 10.01,13.88 17.42,17.38 5.62,2.47 2.06,11.51 -3.47,10.56 -4.65,-1.69 -8.7,-4.67 -12.94,-7.18 C 458.8,33.93 454.66,23.5 455.98,14.11 457.63,6.89 463.95,1.53 471.05,0 z" />

        <path id="path3407" d="m 1102.07,0 6.03,0 c 10.02,2.18 18.66,10.57 19.73,20.99 2.04,14.34 -12.09,28.34 -26.45,25.58 -11.64,-1.46 -20.55,-13.05 -19.41,-24.64 0.47,-10.94 9.42,-20.22 20.1,-21.93 m -1.83,12.3 c -9.71,3.78 -8.99,19.29 0.48,22.93 8.59,3.86 18.12,-5.75 15.61,-14.37 -1.34,-6.99 -9.52,-11.45 -16.09,-8.56 z" />

        <path id="path3409" d="m 1221.96,0 5.24,0 c 7.42,1.5 14.96,6.3 16.72,14.11 1.39,4.29 -3.2,9.41 -7.57,7.59 -3.55,-1.54 -1.84,-7 -5.48,-8.53 -4.63,-3.21 -13.98,-2.16 -13.93,4.82 0.56,9.38 10.23,13.95 17.59,17.6 5.09,2.61 1.75,10.97 -3.48,10.42 -5.11,-1.8 -9.55,-5.06 -14.13,-7.86 -7.39,-4.6 -10.75,-13.58 -10.77,-21.98 1.01,-8.13 7.84,-14.71 15.81,-16.17 z" />

        <path id="path3411" d="m 151.27,56.29 c 12.66,-7.14 30.29,-3.99 39.1,7.79 6.73,-7.94 17.09,-12.63 27.55,-11.42 16.79,0.64 31.24,17.96 27.46,34.63 -2.18,11.87 -12.53,21.1 -24.24,23.15 0.96,11.61 0.15,23.28 0.46,34.92 2.98,0.21 6.25,-0.41 9,1.02 3.03,3.25 1.89,10.72 -3.52,10.47 -4.79,-0.07 -12.32,2.1 -15.04,-2.97 -0.68,-14.1 -0.12,-28.28 -0.26,-42.42 -3.49,-0.57 -8.5,-1.86 -7.86,-6.46 -0.65,-4.62 4.53,-6.04 8.11,-4.98 12.47,2.22 25.35,-10.68 21.22,-23.15 -3.19,-11.92 -19.23,-16.85 -28.92,-9.59 -6.23,4 -8.01,11.76 -8.24,18.68 -0.43,10.44 -6.16,21.16 -16.19,25.17 -6.17,1.78 -8.96,-8.3 -3.57,-10.84 12.49,-7.74 10.66,-28.16 -2.25,-34.46 -11.22,-6.36 -26.46,3.61 -26.14,16.16 -0.63,6.6 2.25,13.44 7.71,17.29 1.76,1.52 4.32,2.61 4.89,5.1 0.52,4.42 -4.91,8.81 -8.97,6.14 -9.95,-6.08 -16.37,-17.81 -15.65,-29.52 0.03,-10.28 6.66,-19.66 15.35,-24.71 z" />

        <path id="path3413" d="m 925.83,54.73 c 12.4,-5.05 27.81,-1.38 36.03,9.37 11.7,-15.2 37.45,-15.61 48.99,-0.04 8.07,9.32 8.6,24.14 1.28,34.04 -7.14,10.16 -20.79,14.92 -32.77,12.44 -4.24,-0.61 -4.79,-6.05 -3.09,-9.18 2.25,-2.51 5.85,-1.21 8.76,-1.23 7.62,0.57 15.1,-3.97 18.51,-10.74 3.72,-7.02 1.55,-16.41 -4.75,-21.2 -8.08,-6.98 -21.92,-5.18 -27.76,3.82 -4.13,6.61 -2.66,14.78 -4.94,21.97 -2.12,7.6 -7.64,14.38 -15.09,17.22 -6.18,1.26 -8.54,-8.78 -3.01,-11.11 12.86,-8.15 9.88,-29.77 -4.1,-35.01 -12.07,-5.13 -25.93,6.41 -24.8,19 0.25,7.16 4.52,13.56 10.57,17.23 6.09,3.45 -0.97,12.66 -6.37,9.39 -12.1,-7.16 -18.95,-22.77 -14.97,-36.43 2.45,-8.72 9.24,-15.98 17.51,-19.54 z" />

        <path id="path3415" d="m 85.77,56.7 c 7.87,-5.76 21.65,-3.88 25.74,5.7 2.02,3.56 -1.78,7.98 -5.49,7.84 -4.05,-0.16 -5.76,-5.48 -10.01,-4.99 -1.47,-0.02 -4.17,0.43 -3.58,2.47 5.03,4.4 12.42,3.39 17.95,6.83 8.8,4.76 15.18,15.38 11.82,25.43 -1.25,6.94 -7.56,11.32 -14.19,12.35 -0.14,13.2 0.23,26.43 -0.18,39.61 -1.03,5.76 -10.12,6.44 -11.17,0.34 C 96.02,139.3 96.78,126.25 96.3,113.25 88,113.55 78.75,112.52 72.44,106.56 66.41,99.7 66.32,87.69 73.57,81.63 77.2,78.42 82.35,78.27 86.92,78.72 79.89,73.78 78.7,62.12 85.77,56.7 m 11.72,26.07 c 4.96,5.04 7.93,11.55 10.19,18.17 5.14,-2.11 5.52,-8.78 2.02,-12.53 -2.65,-4.2 -7.83,-4.65 -12.21,-5.64 M 80.1,91.22 c -3.7,10.13 9.21,12.25 16.31,11.19 C 95.32,95.23 87.37,87.27 80.1,91.22 z" />

        <path id="path3417" d="m 269.86,59.84 c 6.82,-10.1 25.79,-7.98 29.19,4.15 0.44,5.18 -6.82,8.5 -10.16,4.2 -2.33,-3.05 -7.96,-4.55 -10.09,-0.55 6.26,4.69 14.97,3.55 21.09,8.54 8.59,5.68 12.87,17.31 8.22,26.87 -2.04,5.54 -7.68,8.2 -13.11,9.23 -0.14,13.17 0.27,26.36 -0.19,39.5 -0.93,5.7 -9.84,6.74 -11.13,0.74 -0.68,-13.06 0.1,-26.19 -0.38,-39.27 -8.32,0.31 -17.53,-0.74 -23.89,-6.66 -6.04,-6.87 -6.16,-18.95 1.15,-25 3.62,-3.14 8.71,-3.29 13.25,-2.91 C 268.15,74.4 266.06,66 269.86,59.84 m 14.7,22.97 c 4.93,5.07 7.78,11.6 10.14,18.14 4.72,-2.11 5.56,-8.2 2.35,-11.98 -2.5,-4.57 -7.89,-5.25 -12.49,-6.16 m -16.6,16.26 c 4.01,3.93 10.24,3.27 15.41,3.32 -1.28,-6.51 -6.37,-12.32 -13.36,-12.4 -4.6,-0.06 -4.15,6.49 -2.05,9.08 z" />

        <path id="path3419" d="m 338.25,59.34 c 7.1,-9.52 25.5,-7.28 28.81,4.66 0.43,5.17 -6.83,8.49 -10.17,4.19 -2.32,-3.03 -7.94,-4.55 -10.07,-0.58 5.41,4.25 12.77,3.55 18.56,6.94 8.79,4.76 15.19,15.42 11.77,25.44 -1.19,6.96 -7.53,11.31 -14.15,12.34 -0.15,13.2 0.28,26.43 -0.2,39.61 -1.04,5.76 -10.11,6.44 -11.14,0.34 -0.64,-12.98 0.11,-26.03 -0.37,-39.03 -8.11,0.3 -17.01,-0.68 -23.39,-6.21 -6.54,-6.74 -6.78,-19.24 0.67,-25.43 3.6,-3.18 8.71,-3.3 13.25,-2.93 -5.86,-4.39 -7.84,-13.2 -3.57,-19.34 m 14.26,23.43 c 4.94,5.07 7.87,11.58 10.19,18.17 5.07,-2.17 5.43,-8.75 2,-12.53 -2.64,-4.19 -7.81,-4.65 -12.19,-5.64 m -16.56,16.29 c 4.08,3.87 10.22,3.32 15.42,3.33 -1.22,-6.54 -6.39,-12.31 -13.36,-12.39 -4.58,-0.05 -4.07,6.46 -2.06,9.06 z" />

        <path id="path3421" d="m 458.79,54.84 c 17.26,-7.24 38.08,7.08 39.54,25.24 1.91,14.22 -7.88,28.62 -21.41,32.88 -11.87,3.72 -26.22,-0.66 -32.98,-11.34 -8.95,11.87 -26.03,15.44 -39.35,9.27 0.16,9.69 -0.44,19.43 0.31,29.09 0.04,4.13 4.89,4.62 8.03,4.75 24.62,-0.02 49.26,0.14 73.87,-0.08 1.98,-2.22 0.13,-6.17 2.76,-8.11 3.27,-2.38 9.5,-1.36 9.66,3.47 3.14,8.24 -4.62,17.42 -13.14,16.96 -23.02,0.13 -46.05,-0.06 -69.07,0.08 -6.51,-0.21 -13.7,-0.69 -18.8,-5.24 -4.59,-4.21 -5.65,-10.86 -5.48,-16.8 0.21,-12.32 -0.33,-24.66 0.26,-36.95 1.1,-5.09 7.17,-3.9 10.96,-3.19 4.66,5.91 12.62,9.05 20,7.02 10.54,-2.55 16.71,-14.91 13.26,-25.01 -4.61,-13.27 -25.7,-15.45 -33.43,-4.03 -1.86,2.81 -6.02,4.77 -8.91,2.27 -2.5,-3.58 -1.52,-8.73 1.4,-11.79 12.96,-15.35 41.85,-12.53 50.25,6.26 4.13,7.25 1.09,16.31 5.62,23.39 3.44,5.32 9.33,9.55 15.86,9.48 11.69,-0.15 21.86,-13.01 17.98,-24.39 -2.68,-9.51 -13.41,-14.69 -22.77,-12.77 -5.47,1.32 -8.61,-7.32 -4.42,-10.46 z" />

        <path id="path3423" d="m 522.27,53.5 c 7.08,-0.45 11.99,6.94 11.34,13.47 0.31,7.29 -7.54,14.23 -14.65,11.16 -11.18,-4.03 -9.17,-24.32 3.31,-24.63 m -0.13,11.97 c -1.63,4.64 4.36,-0.05 0,0 z" />

        <path id="path3425" d="m 562.21,53.46 c 3.54,0.14 6.75,3.8 5.69,7.38 -2.59,3.36 -6.73,5.32 -8.77,9.18 -5.52,8.54 -4.02,21.26 4.5,27.32 7.19,5.82 18.61,3.68 23.82,-3.77 7.33,-9.3 3.96,-24.05 -6,-30.08 -5.52,-3.04 0.01,-12.54 5.39,-9.33 14.01,7.29 20.24,26.61 13.03,40.71 -5.44,11.13 -18.02,18.63 -30.47,16.67 -11.84,-1.35 -21.57,-11.25 -24.19,-22.63 -2.8,-12.32 2.31,-25.8 12.07,-33.67 1.35,-1.18 3.14,-1.74 4.93,-1.78 z" />

        <path id="path3427" d="m 678.86,56.09 c 16.53,-9.69 37.91,4.46 41.23,22.03 4.03,-7 8.18,-14.28 14.95,-19.01 6.27,-5.41 15.07,-6.08 22.93,-4.95 15.1,2.55 25.56,19.47 22.45,34.15 -3.29,17.96 -26.04,29.71 -42.15,20.41 -4.19,-1.81 -3.52,-8.59 0.73,-9.88 4.53,-1.64 8.52,2.9 13.09,2.13 9.18,-1.12 17.57,-9.41 17.32,-18.93 -0.3,-5.42 -2.72,-11 -7.12,-14.31 -6.18,-3.57 -14.25,-3.24 -20.43,0.14 -6.12,4.81 -9.69,11.95 -13.94,18.3 -3.25,0.63 -5.92,-1.01 -7.9,-3.45 0.85,11.06 -5.88,21.54 -15.01,27.31 -12.59,7.96 -31.25,4.35 -39.39,-8.32 -9.05,11.79 -26.03,15.28 -39.38,9.25 0.16,9.63 -0.27,19.28 0.19,28.9 0.24,4.28 5.17,4.87 8.52,4.89 24.66,-0.03 49.33,0.06 73.99,-0.05 0.55,-2.62 0.33,-5.61 1.88,-7.89 2.89,-2.56 9.1,-1.97 9.91,2.42 2.42,6.31 -0.91,13.87 -7.01,16.56 -5.05,1.78 -10.48,1.2 -15.72,1.22 -20,-0.01 -40,-0.02 -60,0.02 -7.05,-0.22 -15.2,-1.11 -19.85,-7.12 -4.92,-6.59 -3.54,-15.24 -3.72,-22.92 0.23,-9.74 -0.47,-19.54 0.34,-29.24 1.35,-4.9 7.22,-3.56 10.91,-2.73 5.72,7.41 16.98,9.89 24.95,4.71 8.76,-5.3 12.19,-18.18 6.22,-26.74 -5.78,-7.98 -17.61,-9.26 -26.07,-5.19 -4.71,2.45 -7,10.55 -13.53,8.01 -3.73,-3.44 -2.32,-9.44 0.9,-12.72 8.48,-9.86 23.42,-11.74 35.17,-7.4 10.66,4.03 17.8,14.97 17.68,26.31 -0.59,10.1 7.86,19.96 18.05,20.44 12.22,0.35 22.82,-13.32 18.4,-25.05 -3.05,-9.43 -13.9,-14.02 -23.19,-12.05 -4.92,0.56 -6.19,-5.5 -5.4,-9.25 z" />

        <path id="path3429" d="m 792.09,65.04 c 11.51,-15.59 37.6,-15.53 49.55,-0.46 8.23,-10.79 23.65,-13.66 36.04,-9.3 11.81,4.48 20.87,16.87 19.34,29.78 -1.43,14 -14.46,25.07 -28.15,26.33 -3.54,0.45 -8.03,1.33 -10.67,-1.74 -1.12,-2.63 -1.28,-6.36 1.2,-8.28 2.7,-1.26 5.78,-1.07 8.68,-1.49 7.4,-0.82 14.06,-6.22 16.53,-13.22 3.1,-10.7 -6.66,-22.25 -17.6,-21.72 -6.78,-0.64 -13.95,2.76 -17.19,8.85 -3.91,6.74 -2.07,15.19 -6.14,21.9 -7.94,16.33 -31.23,21.3 -45.24,9.83 -12.75,-8.79 -16.07,-28.29 -6.35,-40.48 m 19.28,0.4 c -7.32,1.91 -13.61,8.72 -13.43,16.53 -0.55,9.39 8.02,17.58 17.1,18.18 12.2,1.74 24.49,-11.98 19.49,-23.78 -3.48,-9 -14.08,-13.4 -23.16,-10.93 z" />

        <path id="path3431" d="m 1096.03,53.69 c 17.09,-4.58 36.07,9.55 36.05,27.31 1.18,13.77 -9.49,26.13 -22.21,29.98 0.36,11.44 0.07,22.9 0.17,34.35 2.87,0.16 5.89,-0.21 8.67,0.78 3.13,2.61 2.76,9.9 -1.99,10.54 -5.13,0.87 -10.53,0.82 -15.51,-0.79 -2.74,-14.26 -0.47,-29.18 -1.21,-43.7 -8.69,-0.95 -17.41,-4.83 -22.38,-12.28 -11.59,14.2 -36.99,16.06 -48.4,0.8 -4.54,-6.05 6.41,-12.39 10.3,-6.2 10.15,12.11 31.15,3.64 32.35,-11.43 1.45,-15.28 -19.24,-23.63 -30.41,-14.68 -2.33,1.81 -4.12,5.06 -7.45,4.91 -4.83,0.35 -7.91,-6.29 -4.52,-9.8 12.94,-14.93 40.68,-13 50.23,4.79 2.48,4.5 3.39,9.68 3.32,14.78 -0.14,7.04 5.49,12.52 11.31,15.57 11.04,6.07 26.82,-4.01 25.74,-16.62 0.41,-8.73 -7.24,-16.2 -15.58,-17.35 -4.15,-1.19 -8.97,1.61 -12.6,-1.52 -2.81,-3.42 -0.95,-9.85 4.12,-9.44 z" />

        <path id="path3433" d="m 1167.4,53.46 c 16.39,-3.83 34.5,8.26 35.47,25.45 -0.72,9.6 6.15,18.36 15.19,21 11.57,3.12 24.71,-8.29 22.43,-20.27 -1.83,-10.41 -13.48,-17.22 -23.52,-14.58 -5.84,1.32 -8.53,-8.99 -2.7,-10.72 16.58,-4.34 37.59,7.41 37.94,25.73 2.05,15.52 -11.49,29.57 -26.29,31.64 -16.42,2.58 -33.48,-10.91 -33.92,-27.7 0.3,-8.86 -6.18,-17.38 -14.9,-19.17 -10.12,-2.55 -21.67,5.29 -21.79,16.04 -1.71,11.67 10.52,21.86 21.71,19.05 4.86,-2.09 10.49,4.59 6.6,8.67 -16.32,9.76 -38.58,-4.22 -39.98,-22.37 -2.53,-15.1 8.61,-30.53 23.76,-32.77 z" />

        <path id="path3435" d="m 0.76,83.01 c -1.32,-14.89 11.37,-29.09 26.3,-29.54 13.49,-1.5 26.74,8.06 30.52,20.91 2.04,6 1.37,12.4 1.45,18.63 0.04,17.3 -0.06,34.6 0.05,51.89 3.64,0.28 9.11,-1.2 10.69,3.29 1.87,5.38 -3.76,9.63 -8.75,8.92 C 56.73,156.77 49.21,158.63 47.9,153 47.45,130.31 48.05,107.59 47.61,84.9 47.54,77.16 43.64,68.79 35.86,66.25 c -9.19,-3.53 -20.29,2 -23.26,11.33 5.61,0.84 11.55,2.03 15.97,5.85 7.5,7.22 10.25,19.31 5.56,28.78 -2.18,2.66 -6.08,1.86 -9.08,1.59 C 10.66,111.77 -0.8,97.58 0.76,83.01 m 11.78,6.03 c 2.18,5.65 6.51,10.62 12.15,13 -0.23,-6.79 -5.14,-12.73 -12.15,-13 z" />

        <path id="path3437" d="m 522.28,86.49 c 9.98,-0.49 14.4,12.74 9.27,20.08 -2.66,4.36 -8.59,6.71 -13.3,4.24 -10.32,-4.78 -8.28,-24.18 4.03,-24.32 m -0.07,11.95 c -1.6,2.98 3.31,0.24 0,0 z" />

        <path id="path3439" d="m 918.55,127.6 c 8.17,-12.97 28.15,-14.36 39.37,-4.64 9,-7.32 22.52,-8.42 32.51,-2.49 7.27,4.52 11.76,14.13 8.56,22.42 -4.02,10.88 -17.55,15.64 -28.17,13.5 -5.91,-0.36 -5.87,-10.4 0.11,-10.34 6.37,0.49 14.94,-0.99 17.07,-7.98 1.08,-9.64 -11.86,-12.17 -18.75,-8.91 -5.28,1.92 -5.99,8.06 -6.38,12.88 -1,7.3 -7.02,13.03 -13.88,15.03 -5.14,-0.08 -7.48,-8.37 -2.59,-10.71 4.27,-2.25 7.73,-7.34 5.5,-12.19 -4.27,-8.54 -18.87,-9.42 -23.4,-0.6 -2.24,5.54 1.32,11.33 6.46,13.58 6.26,3.46 -1.72,13.4 -6.83,8.78 -10.48,-4.55 -15.73,-18.39 -9.58,-28.33 z" />

      </g>

        <path id="path3442" d="m 522.21,98.44 c 3.31,0.24 -1.6,2.98 0,0 z" style="fill:#dbdbdb"/>

    </g>

  </g>

</svg>