<?xml version="1.0" encoding="UTF-8"?>
<!DOCTYPE svg PUBLIC "-//W3C//DTD SVG 1.1//EN" "http://www.w3.org/Graphics/SVG/1.1/DTD/svg11.dtd">
<!-- Creator: CorelDRAW 2018 (64-Bit Not for commercial use) -->
<svg xmlns="http://www.w3.org/2000/svg" xml:space="preserve" width="220px" height="220px" version="1.1" style="shape-rendering:geometricPrecision; text-rendering:geometricPrecision; image-rendering:optimizeQuality; fill-rule:evenodd; clip-rule:evenodd"
viewBox="0 0 220 220.03"
 xmlns:xlink="http://www.w3.org/1999/xlink">
 <defs>
  <style type="text/css">
   <![CDATA[
    .fil3 {fill:none}
    .fil5 {fill:#0082C9}
    .fil2 {fill:white}
    .fil1 {fill:black;fill-rule:nonzero}
    .fil4 {fill:#0082C9;fill-rule:nonzero}
    .fil0 {fill:#FFE12D;fill-rule:nonzero}
   ]]>
  </style>
 </defs>
 <g id="__x0023_Layer_x0020_1">
  <metadata id="CorelCorpID_0Corel-Layer"/>
  <path class="fil0" d="M1.35 82.28c36.14,-41.43 67.6,-61.84 108.41,-80.84 43.3,19.31 82.86,48.44 108.88,80.37 -5.3,45.79 -20.41,90.65 -46.73,130.37 -40.97,9.35 -82.87,7.95 -124.3,0 -25.23,-40.03 -42.52,-84.26 -46.26,-129.9z"/>
  <path class="fil1" d="M112.48 220.03c-20.7,0 -42.31,-2.19 -65.12,-6.56l-0.55 -0.11 -0.31 -0.48c-27.28,-43.28 -42.91,-87.18 -46.45,-130.49l-0.05 -0.56 0.36 -0.41c37.28,-42.75 69.29,-62.75 108.85,-81.17l0.54 -0.25 0.54 0.24c43.51,19.41 83.37,48.84 109.36,80.74l0.35 0.43 -0.06 0.55c-5.59,48.33 -21.38,92.38 -46.94,130.94l-0.29 0.44 -0.51 0.12c-19.19,4.38 -39.01,6.57 -59.72,6.57zm-64.06 -9.03l0 0c44.84,8.54 84.98,8.54 122.68,0.02 25.07,-37.96 40.59,-81.29 46.17,-128.81 -25.64,-31.3 -64.76,-60.17 -107.5,-79.33 -38.87,18.14 -70.42,37.93 -107.07,79.84 3.59,42.55 18.97,85.7 45.72,128.28z"/>
  <g id="_1593519187648">
   <path class="fil1" d="M68.2 206.1c1.85,0.24 3.3,-0.97 3.6,-3.25l1.33 -10.21 4.17 0.54 -1.33 10.21c-0.6,4.64 -3.81,7.21 -8.3,6.62 -4.52,-0.59 -7.03,-3.9 -6.43,-8.54l1.33 -10.21 4.18 0.55 -1.33 10.21c-0.3,2.25 0.89,3.83 2.78,4.08z"/>
   <polygon class="fil1" points="89.33,211.96 85.69,204.81 83.43,207.17 83.1,211.48 78.91,211.15 80.27,193.48 84.46,193.8 83.89,201.22 90.49,194.27 95.35,194.65 88.83,201.5 94.35,212.35 "/>
   <path class="fil1" d="M106.83 212.68l-2.23 -4.96 -0.09 0 -3.03 -0.08 -0.12 4.91 -4.2 -0.1 0.42 -17.73 7.24 0.18c4.27,0.1 6.66,2.43 6.56,6.38 -0.06,2.68 -1.12,4.62 -3.01,5.64l3.22 5.87 -4.76 -0.11zm-5.26 -8.73l0 0 3.05 0.07c1.71,0.04 2.72,-0.89 2.76,-2.69 0.04,-1.74 -0.93,-2.7 -2.63,-2.74l-3.05 -0.08 -0.13 5.44z"/>
   <polygon class="fil1" points="118.65,194.9 118.95,212.62 114.74,212.69 114.44,194.97 "/>
   <path class="fil1" d="M138.01 202.73c0.34,5.28 -2.95,9.08 -8.16,9.42l-6.77 0.43 -1.12 -17.69 6.93 -0.45c5.09,-0.32 8.78,3.04 9.12,8.29zm-4.29 0.32l0 0c-0.19,-3.05 -2.14,-5 -4.69,-4.84l-2.63 0.17 0.65 10.2 2.84 -0.19c2.43,-0.15 4.02,-2.31 3.83,-5.34z"/>
   <path class="fil1" d="M151.72 206.71l-6.9 0.95 -0.69 3.26 -4.28 0.59 4.44 -18.51 4.28 -0.59 9.11 16.64 -4.44 0.62 -1.52 -2.96zm-1.71 -3.34l0 0 -3.05 -5.96 -1.37 6.57 4.42 -0.61z"/>
  </g>
  <g id="_1593519192256">
   <path class="fil2" d="M106.4 122.04c-4.01,-3.28 -9.3,-2.97 -12.85,0.18 -2.08,6.64 -4.43,13.28 -6.51,19.91 7.86,-4.13 15.04,-4.13 22.62,0.83l0.03 -10.37 -3.29 0 0 -10.55z"/>
  </g>
  <g id="_1593519195616">
   <polygon class="fil2" points="60.84,106.35 65.95,106.35 65.95,111.47 60.84,111.47 "/>
  </g>
  <g id="_1593519194496">
   <polygon class="fil2" points="71.06,106.35 76.17,106.35 76.17,111.47 71.06,111.47 "/>
  </g>
  <g id="_1593519197024">
   <polygon class="fil2" points="81.29,106.35 86.4,106.35 86.4,111.47 81.29,111.47 "/>
  </g>
  <g id="_1593519197152">
   <polygon class="fil2" points="91.51,106.35 96.62,106.35 96.62,111.47 91.51,111.47 "/>
  </g>
  <g id="_1593519165664">
   <polygon class="fil2" points="101.73,106.35 106.85,106.35 106.85,111.47 101.73,111.47 "/>
  </g>
  <g id="_1593519166976">
   <polygon class="fil2" points="106.48,72.22 113.4,72.22 113.45,86.89 127.83,86.96 127.83,93.42 113.4,93.42 113.4,132.67 106.48,132.67 106.48,93.42 92.05,93.42 92.05,86.96 106.48,86.96 "/>
  </g>
  <g id="_1593519166112">
   <path class="fil2" d="M87.48 142.81c8.9,-5.32 15.05,-4.68 22.57,0.28 7.74,-4.93 14.65,-5.17 23.03,-0.46 -10.98,-2.14 -15.81,-0.16 -23.12,7.06 -4.19,-6.51 -14.71,-10.46 -22.48,-6.88z"/>
  </g>
  <g id="_1593519168800">
   <path class="fil2" d="M113.35 122.16c4.01,-3.27 9.3,-2.96 12.85,0.19 2.08,6.64 4.44,13.27 6.52,19.91 -7.86,-4.13 -15.04,-4.13 -22.63,0.83l-0.03 -10.37 3.29 0 0 -10.56z"/>
  </g>
  <g id="_1593519167776">
   <g>
    <path class="fil3" d="M166.58 156.67c-2.46,2.42 -4.86,6.19 -6.75,7.58 -6.49,4.76 -7.13,3.69 -10.1,5.66 21.19,-15.77 21.77,-29.84 21.65,-50.63 -0.03,-5.07 0.06,-9.72 1.89,-15.63 -3.92,3.26 -5.32,8.99 -6.92,16.11 -3.29,11.46 -7.52,27.05 -13.75,36.14 0.23,-3.59 1.22,-7.73 2.62,-11.46 -1.76,2.24 -3.6,4.84 -6.11,7.03 -6.1,5.37 -11.27,8.11 -16.23,13.66 -1.6,1.79 -2.48,3.33 -5.11,5 0.28,-2.55 1.32,-4.89 3.53,-7.65 -3.91,2.26 -5.14,3.68 -10.16,4.56 -3.99,0.7 -8.78,0.89 -11.22,3.38 -2.45,-2.49 -7.24,-2.68 -11.23,-3.38 -5.02,-0.88 -6.25,-2.3 -10.16,-4.56 2.21,2.76 3.25,5.1 3.54,7.65 -2.64,-1.67 -3.53,-3.21 -5.14,-5 -4.96,-5.55 -10.1,-8.3 -16.21,-13.66 -2.51,-2.2 -4.35,-4.79 -6.11,-7.03 1.4,3.73 2.39,7.87 2.63,11.46 -6.24,-9.09 -10.72,-24.61 -13.75,-36.14 -1.86,-7.06 -3.01,-12.85 -6.92,-16.11 1.82,5.91 1.91,10.56 1.88,15.63 -0.12,20.79 0.46,34.86 21.65,50.63 -2.97,-1.97 -3.61,-0.9 -10.1,-5.66 -1.89,-1.39 -4.29,-5.16 -6.75,-7.58 -1.47,-1.24 -3.27,-2.37 -5.51,-2.03 2.67,1.15 3.54,3.33 5.19,6.12 5.82,9.84 10.81,17.41 28.35,20.35 -3.93,0.99 -7.49,0.87 -12.16,0 6.39,3.12 13.77,5.63 21.77,4.91 -0.74,0.99 -1.48,1.23 -3.73,1.76 5.85,0.42 12.71,2.51 19.02,-0.78 0.68,1.77 1.96,2.53 3.15,2.97 0,0 0.35,0.12 0.59,0.19 0.42,-0.1 0.67,-0.23 0.67,-0.23 1.19,-0.43 2.38,-1.16 3.06,-2.93 6.31,3.29 13.17,1.2 19.02,0.78 -2.25,-0.53 -2.99,-0.77 -3.73,-1.76 8,0.72 15.38,-1.79 21.77,-4.91 -4.67,0.87 -8.23,0.99 -12.16,0 17.54,-2.94 22.53,-10.51 28.35,-20.35 1.65,-2.79 2.52,-4.97 5.19,-6.12 -2.24,-0.34 -4.04,0.79 -5.51,2.03z"/>
   </g>
  </g>
  <g id="_1593519168608">
   <path class="fil1" d="M166.58 156.67c-2.46,2.42 -4.86,6.19 -6.75,7.58 -6.49,4.76 -7.13,3.69 -10.1,5.66 21.19,-15.77 21.77,-29.84 21.65,-50.63 -0.03,-5.07 0.06,-9.72 1.89,-15.63 -3.92,3.26 -5.32,8.99 -6.92,16.11 -3.29,11.46 -7.52,27.05 -13.75,36.14 0.23,-3.59 1.22,-7.73 2.62,-11.46 -1.76,2.24 -3.6,4.84 -6.11,7.03 -6.1,5.37 -11.27,8.11 -16.23,13.66 -1.6,1.79 -2.48,3.33 -5.11,5 0.28,-2.55 1.32,-4.89 3.53,-7.65 -3.91,2.26 -5.14,3.68 -10.16,4.56 -3.99,0.7 -8.78,0.89 -11.22,3.38 -2.45,-2.49 -7.24,-2.68 -11.23,-3.38 -5.02,-0.88 -6.25,-2.3 -10.16,-4.56 2.21,2.76 3.25,5.1 3.54,7.65 -2.64,-1.67 -3.53,-3.21 -5.14,-5 -4.96,-5.55 -10.1,-8.3 -16.21,-13.66 -2.51,-2.2 -4.35,-4.79 -6.11,-7.03 1.4,3.73 2.39,7.87 2.63,11.46 -6.24,-9.09 -10.72,-24.61 -13.75,-36.14 -1.86,-7.06 -3.01,-12.85 -6.92,-16.11 1.82,5.91 1.91,10.56 1.88,15.63 -0.12,20.79 0.46,34.86 21.65,50.63 -2.97,-1.97 -3.61,-0.9 -10.1,-5.66 -1.89,-1.39 -4.29,-5.16 -6.75,-7.58 -1.47,-1.24 -3.27,-2.37 -5.51,-2.03 2.67,1.15 3.54,3.33 5.19,6.12 5.82,9.84 10.81,17.41 28.35,20.35 -3.93,0.99 -7.49,0.87 -12.16,0 6.39,3.12 13.77,5.63 21.77,4.91 -0.74,0.99 -1.48,1.23 -3.73,1.76 5.85,0.42 12.71,2.51 19.02,-0.78 0.68,1.77 1.96,2.53 3.15,2.97 0,0 0.35,0.12 0.59,0.19 0.42,-0.1 0.67,-0.23 0.67,-0.23 1.19,-0.43 2.38,-1.16 3.06,-2.93 6.31,3.29 13.17,1.2 19.02,0.78 -2.25,-0.53 -2.99,-0.77 -3.73,-1.76 8,0.72 15.38,-1.79 21.77,-4.91 -4.67,0.87 -8.23,0.99 -12.16,0 17.54,-2.94 22.53,-10.51 28.35,-20.35 1.65,-2.79 2.52,-4.97 5.19,-6.12 -2.24,-0.34 -4.04,0.79 -5.51,2.03z"/>
  </g>
  <g id="_1593519177312">
   <polygon class="fil2" points="109.3,143.36 110.12,143.89 109.09,144.56 "/>
  </g>
  <g id="_1593519176544">
   <g>
    <path class="fil4" d="M110.23 164.81c-30.63,0 -55.55,-24.91 -55.55,-55.54 0,-30.64 24.92,-55.55 55.55,-55.55 30.63,0 55.55,24.91 55.55,55.55 0,30.63 -24.92,55.54 -55.55,55.54zm0 -109.8l0 0c-29.92,0 -54.26,24.34 -54.26,54.26 0,29.91 24.34,54.25 54.26,54.25 29.92,0 54.26,-24.34 54.26,-54.25 0,-29.92 -24.34,-54.26 -54.26,-54.26z"/>
   </g>
   <g>
    <polygon class="fil4" points="143.96,106.33 149.07,106.33 149.07,111.44 143.96,111.44 "/>
   </g>
   <g>
    <polygon class="fil4" points="113.29,106.33 118.4,106.33 118.4,111.44 113.29,111.44 "/>
   </g>
   <g>
    <polygon class="fil4" points="123.51,106.33 128.62,106.33 128.62,111.44 123.51,111.44 "/>
   </g>
   <g>
    <polygon class="fil4" points="133.73,106.33 138.84,106.33 138.84,111.44 133.73,111.44 "/>
   </g>
   <g>
    <polygon class="fil4" points="154.18,106.33 159.29,106.33 159.29,111.44 154.18,111.44 "/>
   </g>
   <g>
    <polygon class="fil4" points="60.84,106.35 65.95,106.35 65.95,111.47 60.84,111.47 "/>
   </g>
   <g>
    <polygon class="fil4" points="71.06,106.35 76.17,106.35 76.17,111.47 71.06,111.47 "/>
   </g>
   <g>
    <polygon class="fil4" points="81.29,106.35 86.4,106.35 86.4,111.47 81.29,111.47 "/>
   </g>
   <g>
    <polygon class="fil4" points="91.51,106.35 96.62,106.35 96.62,111.47 91.51,111.47 "/>
   </g>
   <g>
    <polygon class="fil4" points="101.73,106.35 106.85,106.35 106.85,111.47 101.73,111.47 "/>
   </g>
   <g>
    <path class="fil4" d="M55.37 111.47l51.26 0 0 11.12c-2.71,-3.76 -10.42,-3.32 -12.63,-1.05l-6.61 21.2c7.82,-3.27 18.74,1 22.7,6.92l0 14.58c-31.07,-2.55 -52.32,-21.15 -54.72,-52.77z"/>
   </g>
   <g>
    <path class="fil4" d="M114.04 133.31l-8.2 0 0 -39.25 -14.43 0 0 -7.74 14.43 0 0 -14.73 8.2 0 0.04 14.67 14.39 0.06 0 7.74 -14.43 0 0 39.25zm-6.92 -1.28l0 0 5.64 0 0 -39.24 14.44 0 0 -5.19 -14.39 -0.07 -0.05 -14.67 -5.64 0 0 14.74 -14.43 0 0 5.19 14.43 0 0 39.24z"/>
   </g>
   <g>
    <path class="fil4" d="M113.38 106.28l51.54 0.05c-2.11,-30.37 -28.06,-51.85 -54.98,-51.85l0 17.74 3.31 0 0 14.92 14.73 -0.33 0 6.78 -14.58 0 -0.02 12.69z"/>
   </g>
   <g>
    <path class="fil4" d="M109.85 150.7l-0.43 -0.66c-3.89,-6.06 -13.99,-10.19 -21.67,-6.65l-0.6 -1.13c8.48,-5.07 14.94,-5.06 22.91,0.07 7.92,-4.92 14.92,-4.99 23.34,-0.26l-0.44 1.18c-11.2,-2.18 -15.82,0.25 -22.55,6.9l-0.56 0.55zm-15.95 -9.88l0 0c6.38,0 12.88,3.37 16.16,7.88 6.45,-6.23 11.11,-8.19 18.85,-7.37 -6.43,-2.51 -12.15,-1.76 -18.52,2.3l-0.34 0.22 -0.35 -0.23c-6.05,-3.98 -10.99,-4.9 -16.78,-2.77 0.32,-0.02 0.65,-0.03 0.98,-0.03z"/>
   </g>
   <g>
    <path class="fil4" d="M109.46 144.26l-0.04 -12.18 3.3 0 0 -10.22 0.23 -0.19c4.12,-3.37 9.75,-3.29 13.68,0.2l0.13 0.12 0.05 0.17c1.04,3.31 2.16,6.68 3.25,9.94 1.1,3.27 2.22,6.64 3.27,9.97l-0.91 0.76c-7.85,-4.13 -14.83,-3.88 -21.98,0.79l-0.98 0.64zm1.25 -10.9l0 0 0.02 8.57c6.81,-4.09 13.52,-4.38 20.92,-0.91 -0.91,-2.85 -1.86,-5.72 -2.8,-8.51 -1.07,-3.21 -2.18,-6.53 -3.2,-9.8 -3.37,-2.88 -8.1,-2.97 -11.66,-0.24l0 10.89 -3.28 0z"/>
   </g>
   <g>
    <polygon class="fil5" points="65.31,112.95 61.48,112.95 61.48,110.29 65.31,110.29 "/>
   </g>
   <g>
    <polygon class="fil5" points="75.54,112.95 71.7,112.95 71.7,110.29 75.54,110.29 "/>
   </g>
   <g>
    <polygon class="fil5" points="85.76,112.95 81.92,112.95 81.92,110.29 85.76,110.29 "/>
   </g>
   <g>
    <polygon class="fil5" points="95.98,112.95 92.15,112.95 92.15,110.29 95.98,110.29 "/>
   </g>
   <g>
    <polygon class="fil5" points="117.76,107.66 114.04,107.66 114.04,105 117.76,105 "/>
   </g>
   <g>
    <polygon class="fil5" points="127.98,107.66 124.15,107.66 124.15,105 127.98,105 "/>
   </g>
   <g>
    <polygon class="fil5" points="138.2,107.7 134.37,107.7 134.37,105 138.2,105 "/>
   </g>
   <g>
    <polygon class="fil5" points="148.43,107.66 144.59,107.66 144.59,105 148.43,105 "/>
   </g>
   <g>
    <polygon class="fil5" points="158.65,107.69 154.82,107.69 154.82,105.01 158.65,105.01 "/>
   </g>
   <g>
    <polygon class="fil5" points="105.85,112.95 102.37,112.95 102.37,110.29 105.85,110.29 "/>
   </g>
  </g>
  <g id="_1593513128128">
   <path class="fil1" d="M29.56 139.78l8.58 -2.76c1.93,-0.62 2.31,-1.47 2.07,-2.23 -0.27,-0.84 -0.99,-1.26 -2.99,-0.62l-8.58 2.76 -0.93 -2.9 8.13 -2.62c3.38,-1.09 5.69,-0.24 6.61,2.64 1,3.12 -0.5,4.95 -3.81,6.01l-8.15 2.62 -0.93 -2.9z"/>
   <path class="fil1" d="M40.45 127.89l-13.7 2.13 -0.43 -2.75 5 -3.23c0.98,-0.62 2.63,-1.66 3.74,-2.28l0 -0.04c-1.43,0.31 -3.78,0.89 -6.3,1.28l-3.03 0.48 -0.41 -2.64 13.7 -2.14 0.43 2.76 -4.84 3.17c-1.08,0.69 -2.69,1.67 -3.88,2.21l0.01 0.04c1.37,-0.28 3.47,-0.72 6.21,-1.15l3.09 -0.48 0.41 2.64z"/>
   <polygon class="fil1" points="25.02,114.02 38.87,113.48 38.99,116.53 25.14,117.06 "/>
   <path class="fil1" d="M38.92 109.1l-14.06 2.58 0.22 -3.36 6.05 -0.72c1.49,-0.18 3.22,-0.39 4.85,-0.49l0.01 -0.05c-1.63,-0.31 -3.28,-0.68 -4.82,-1.06l-5.84 -1.46 0.22 -3.34 13.6 4.49 -0.23 3.41z"/>
   <polygon class="fil1" points="34.93,93.71 34.24,97.22 37.91,97.95 38.7,93.98 40.99,94.43 39.62,101.39 26.02,98.69 27.35,92.01 29.64,92.47 28.91,96.16 32.04,96.78 32.74,93.27 "/>
   <path class="fil1" d="M28.43 88.61c0.15,-0.96 0.45,-2.14 0.82,-3.24 0.54,-1.58 1.22,-2.92 2.33,-3.62 1.02,-0.66 1.99,-0.63 3.12,-0.24 1.4,0.48 2.4,1.68 2.51,3.41l0.04 0.01c0.69,-0.89 1.7,-1.11 3.2,-0.92 1.56,0.21 3.31,0.37 3.89,0.27l-1.03 3.01c-0.43,0.05 -1.87,-0.07 -3.38,-0.34 -1.73,-0.29 -2.35,0.01 -2.68,0.98l-0.14 0.42 5.23 1.78 -0.98 2.88 -12.93 -4.4zm6.71 -0.93l0 0 0.17 -0.51c0.43,-1.25 -0.22,-2.29 -1.37,-2.68 -1.11,-0.38 -2.08,-0.14 -2.56,1.14 -0.08,0.25 -0.16,0.54 -0.15,0.71l3.91 1.34z"/>
   <path class="fil1" d="M42.26 82.39c0.55,-0.43 1.23,-1.28 1.63,-2.08 0.64,-1.29 0.36,-2.2 -0.45,-2.61 -0.9,-0.44 -1.66,-0.04 -2.93,0.81 -1.98,1.4 -3.65,1.48 -4.77,0.92 -1.99,-0.99 -2.9,-3.31 -1.44,-6.25 0.45,-0.91 1.11,-1.68 1.53,-1.98l1.87 1.47c-0.42,0.28 -0.92,0.79 -1.32,1.58 -0.58,1.16 -0.23,2.04 0.43,2.37 0.74,0.36 1.33,0.14 2.9,-0.98 1.92,-1.36 3.51,-1.42 4.82,-0.77 2.26,1.13 2.81,3.76 1.44,6.51 -0.55,1.12 -1.36,2.1 -1.83,2.44l-1.88 -1.43z"/>
   <polygon class="fil1" points="38.78,65.68 50.53,73.04 48.92,75.62 37.17,68.26 "/>
   <polygon class="fil1" points="43.77,62.86 42.09,65.05 40.11,63.53 45.36,56.72 47.34,58.24 45.63,60.45 54.64,67.39 52.78,69.8 "/>
   <path class="fil1" d="M56.01 61.01l1.78 2.71 -2.07 2.11 -7.52 -12.13 2.55 -2.6 12.03 7.53 -2.07 2.1 -2.73 -1.73 -1.97 2.01zm0.28 -3.28l0 0 -2.43 -1.67c-0.72,-0.47 -1.85,-1.29 -2.6,-1.83l-0.05 0.05c0.54,0.76 1.41,1.93 1.87,2.61l1.65 2.43 1.56 -1.59z"/>
   <path class="fil1" d="M61.73 55.99c0.69,-0.14 1.67,-0.62 2.36,-1.17 1.13,-0.89 1.28,-1.84 0.72,-2.55 -0.63,-0.79 -1.48,-0.75 -2.99,-0.53 -2.39,0.41 -3.94,-0.23 -4.71,-1.22 -1.37,-1.75 -1.2,-4.24 1.38,-6.26 0.8,-0.63 1.72,-1.04 2.24,-1.13l1.05 2.13c-0.5,0.08 -1.17,0.31 -1.86,0.86 -1.03,0.8 -1.09,1.74 -0.63,2.32 0.51,0.65 1.14,0.7 3.03,0.37 2.32,-0.41 3.78,0.22 4.69,1.37 1.56,1.99 0.92,4.6 -1.49,6.5 -0.99,0.77 -2.13,1.31 -2.7,1.41l-1.09 -2.1z"/>
   <path class="fil1" d="M66.86 38.65l2.69 -1.42 2.92 5.5 0.04 -0.02c-0.04,-0.63 -0.1,-1.29 -0.16,-1.94l-0.23 -4.91 2.95 -1.57 -0.27 6.97 6.81 5.26 -2.93 1.55 -4.7 -4 -0.09 1.33 2.16 4.07 -2.69 1.43 -6.5 -12.25z"/>
   <path class="fil1" d="M77.67 33.46c0.84,-0.48 1.95,-0.98 3.04,-1.38 1.58,-0.56 3.05,-0.87 4.29,-0.45 1.15,0.4 1.73,1.17 2.13,2.3 0.5,1.39 0.19,2.92 -1.1,4.09l0.02 0.03c1.13,-0.01 1.93,0.64 2.72,1.93 0.8,1.35 1.77,2.82 2.21,3.21l-3 1.08c-0.3,-0.31 -1.1,-1.51 -1.84,-2.86 -0.85,-1.53 -1.47,-1.83 -2.43,-1.49l-0.42 0.15 1.87 5.21 -2.86 1.03 -4.63 -12.85zm4.92 4.66l0 0 0.5 -0.18c1.25,-0.45 1.65,-1.6 1.24,-2.74 -0.4,-1.11 -1.19,-1.72 -2.49,-1.29 -0.24,0.08 -0.52,0.21 -0.65,0.32l1.4 3.89z"/>
   <polygon class="fil1" points="91.89,28.85 95.12,42.33 92.16,43.04 88.93,29.56 "/>
   <path class="fil1" d="M96.58 39.15c0.66,0.22 1.75,0.3 2.63,0.18 1.43,-0.2 2.03,-0.94 1.9,-1.84 -0.14,-1 -0.89,-1.39 -2.31,-1.96 -2.28,-0.85 -3.28,-2.19 -3.45,-3.43 -0.31,-2.2 1.1,-4.26 4.34,-4.71 1.02,-0.14 2.02,-0.03 2.51,0.15l-0.16 2.37c-0.48,-0.18 -1.17,-0.32 -2.05,-0.2 -1.29,0.18 -1.81,0.96 -1.71,1.69 0.11,0.82 0.63,1.18 2.43,1.85 2.21,0.81 3.16,2.1 3.36,3.54 0.34,2.51 -1.52,4.45 -4.56,4.87 -1.25,0.17 -2.51,0.05 -3.05,-0.14l0.12 -2.37z"/>
   <polygon class="fil1" points="107.37,29.39 104.6,29.44 104.56,26.95 113.16,26.8 113.2,29.28 110.41,29.33 110.61,40.7 107.57,40.76 "/>
   <polygon class="fil1" points="121.63,35.37 118.07,35.01 117.69,38.73 121.71,39.14 121.48,41.48 114.43,40.76 115.82,26.97 122.6,27.65 122.36,29.99 118.61,29.61 118.29,32.78 121.85,33.14 "/>
   <path class="fil1" d="M122.93 41.67l3.3 -13.46 2.71 0.66 1.05 5.85c0.2,1.15 0.52,3.07 0.66,4.33l0.05 0.01c0.26,-1.44 0.63,-3.82 1.23,-6.3l0.73 -2.98 2.6 0.64 -3.3 13.46 -2.71 -0.66 -1.07 -5.69c-0.22,-1.26 -0.5,-3.13 -0.54,-4.43l-0.05 -0.01c-0.26,1.38 -0.66,3.48 -1.32,6.18l-0.74 3.03 -2.6 -0.63z"/>
   <path class="fil1" d="M142.95 33.21l2.76 1.29 -2.65 5.64 0.05 0.02c0.47,-0.41 0.97,-0.86 1.45,-1.29l3.78 -3.14 3.03 1.42 -5.73 3.97 -0.11 8.61 -3.01 -1.42 0.37 -6.16 -1.11 0.73 -1.96 4.17 -2.75 -1.29 5.88 -12.55z"/>
   <path class="fil1" d="M153.6 38.73c0.89,0.39 1.95,0.96 2.92,1.6 1.4,0.92 2.53,1.91 2.94,3.16 0.38,1.16 0.1,2.08 -0.55,3.08 -0.82,1.24 -2.23,1.91 -3.93,1.58l-0.02 0.03c0.69,0.9 0.65,1.93 0.09,3.34 -0.6,1.45 -1.18,3.11 -1.23,3.69l-2.66 -1.75c0.05,-0.42 0.53,-1.78 1.17,-3.18 0.72,-1.6 0.58,-2.28 -0.28,-2.84l-0.36 -0.25 -3.04 4.63 -2.55 -1.67 7.5 -11.42zm-0.77 6.73l0 0 0.44 0.29c1.11,0.73 2.27,0.36 2.94,-0.66 0.64,-0.98 0.66,-1.98 -0.47,-2.76 -0.21,-0.14 -0.48,-0.29 -0.65,-0.33l-2.26 3.46z"/>
   <polygon class="fil1" points="165.82,47.31 156.99,58.01 154.65,56.07 163.47,45.38 "/>
   <path class="fil1" d="M168.52 49.88c0.66,0.43 1.51,1.16 2.35,2.03 1.37,1.42 2.03,2.69 2.13,3.98 0.17,1.72 -0.66,3.49 -2.6,5.36 -2.01,1.95 -4.01,2.75 -5.73,2.51 -1.38,-0.12 -2.77,-0.94 -4.29,-2.51 -0.66,-0.69 -1.26,-1.43 -1.64,-1.9l9.78 -9.47zm-6.16 10.19l0 0c0.07,0.13 0.23,0.3 0.35,0.42 1.01,1.05 2.82,1.08 5.57,-1.58 2.04,-1.97 2.7,-3.78 1.42,-5.1 -0.14,-0.15 -0.29,-0.3 -0.46,-0.39l-6.88 6.65z"/>
   <path class="fil1" d="M169.88 67.11l-2.98 1.3 -1.73 -2.38 13.21 -5.42 2.14 2.95 -9.42 10.62 -1.73 -2.38 2.16 -2.41 -1.65 -2.28zm3.18 0.82l0 0 2.05 -2.12c0.58,-0.63 1.58,-1.61 2.24,-2.27l-0.04 -0.06c-0.84,0.42 -2.14,1.08 -2.89,1.42l-2.67 1.22 1.31 1.81z"/>
   <path class="fil1" d="M173.97 79.2l11.65 -7.99 1.26 2.9 -4.77 2.91c-1.37,0.83 -2.76,1.59 -4.24,2.43l0.03 0.06c1.65,-0.49 3.17,-0.77 4.82,-1.13l5.5 -1.18 0.99 2.26 -4.6 3.14c-1.33,0.88 -2.63,1.75 -4.21,2.65l0.01 0.04c1.75,-0.53 3.18,-0.95 4.73,-1.4l5.35 -1.49 1.18 2.73 -13.81 3 -1.25 -2.88 3.79 -2.67c1.07,-0.74 2.43,-1.59 3.89,-2.45l-0.02 -0.04c-1.63,0.41 -3.15,0.79 -4.53,1.03l-4.56 0.85 -1.21 -2.77z"/>
   <path class="fil1" d="M182.52 92.96l-3.24 0.07 -0.7 -2.86 14.27 0 0.87 3.54 -12.75 6.26 -0.7 -2.87 2.92 -1.41 -0.67 -2.73zm2.64 1.96l0 0 2.7 -1.19c0.78,-0.35 2.07,-0.88 2.93,-1.24l-0.01 -0.07c-0.94,0.06 -2.4,0.18 -3.21,0.21l-2.94 0.12 0.53 2.17z"/>
   <path class="fil1" d="M182.06 108.18c-0.23,-0.42 -0.47,-1.26 -0.59,-2.32 -0.46,-3.97 2.22,-6.2 6.13,-6.64 5.19,-0.6 7.59,2.43 7.93,5.45 0.13,1.07 0.03,1.83 -0.12,2.15l-2.31 -0.25c0.1,-0.37 0.18,-0.77 0.11,-1.44 -0.2,-1.71 -1.69,-3.11 -5.1,-2.72 -3.29,0.38 -4.42,1.93 -4.2,3.78 0.05,0.51 0.22,1.07 0.37,1.43l-2.22 0.56z"/>
   <path class="fil1" d="M185.02 112.2l-3.15 -0.76 0.06 -2.95 13.79 3.67 -0.07 3.64 -13.92 2.78 0.06 -2.95 3.18 -0.62 0.05 -2.81zm2.05 2.58l0 0 2.91 -0.46c0.85,-0.14 2.23,-0.33 3.15,-0.45l0.01 -0.07c-0.93,-0.18 -2.36,-0.44 -3.16,-0.62l-2.87 -0.63 -0.04 2.23z"/>
   <path class="fil1" d="M181.61 119.67l13.66 2.32 -0.46 2.75 -5.76 1.47c-1.13,0.28 -3.02,0.74 -4.27,0.97l-0.01 0.05c1.45,0.15 3.86,0.35 6.37,0.77l3.03 0.52 -0.45 2.63 -13.67 -2.32 0.47 -2.75 5.59 -1.48c1.24,-0.31 3.09,-0.72 4.38,-0.86l0.01 -0.04c-1.39,-0.17 -3.52,-0.41 -6.26,-0.88l-3.08 -0.52 0.45 -2.63z"/>
   <path class="fil1" d="M181.74 134.16l-2.79 -1.65 0.92 -2.81 12.11 7.57 -1.14 3.46 -14.12 -1.45 0.92 -2.8 3.22 0.35 0.88 -2.67zm1.2 3.06l0 0 2.91 0.43c0.86,0.11 2.23,0.34 3.15,0.49l0.03 -0.06c-0.83,-0.45 -2.13,-1.12 -2.84,-1.52l-2.55 -1.46 -0.7 2.12z"/>
  </g>
  <g id="_1593616497600">
   <g>
    <path class="fil1" d="M177.72 148.95c-0.39,-0.35 -0.83,-0.64 -1.33,-0.87 -0.71,-0.35 -1.17,-0.62 -1.36,-0.81 -0.28,-0.28 -0.42,-0.55 -0.44,-0.83 0,-0.28 0.09,-0.51 0.28,-0.71 0.16,-0.16 0.38,-0.24 0.65,-0.21 0.27,0.02 0.53,0.16 0.81,0.44 0.23,0.23 0.5,0.64 0.78,1.21 0.29,0.57 0.6,1.05 0.94,1.45 0.1,-0.48 0.14,-0.97 0.11,-1.47 -0.06,-0.79 -0.05,-1.33 0.02,-1.6 0.08,-0.28 0.2,-0.51 0.39,-0.69 0.16,-0.17 0.37,-0.26 0.62,-0.26 0.24,-0.01 0.45,0.08 0.61,0.24 0.2,0.2 0.29,0.47 0.26,0.8 -0.02,0.33 -0.3,0.92 -0.85,1.78 -0.32,0.51 -0.56,0.95 -0.72,1.35 0.43,-0.14 0.87,-0.37 1.35,-0.69 0.77,-0.53 1.33,-0.81 1.71,-0.83 0.38,-0.03 0.68,0.06 0.88,0.27 0.16,0.16 0.24,0.36 0.24,0.6 -0.01,0.24 -0.08,0.44 -0.24,0.6 -0.16,0.16 -0.4,0.28 -0.71,0.36 -0.31,0.08 -0.82,0.1 -1.54,0.04 -0.48,-0.05 -1,-0.02 -1.56,0.08 0.32,0.29 0.71,0.56 1.18,0.8 0.82,0.45 1.35,0.78 1.57,1 0.22,0.22 0.34,0.47 0.36,0.74 0.02,0.28 -0.05,0.49 -0.19,0.63 -0.2,0.2 -0.45,0.3 -0.77,0.31 -0.22,0 -0.46,-0.12 -0.7,-0.37 -0.26,-0.26 -0.51,-0.63 -0.75,-1.11 -0.23,-0.48 -0.41,-0.81 -0.51,-0.98 -0.1,-0.17 -0.28,-0.4 -0.52,-0.69 -0.11,0.52 -0.15,1.03 -0.12,1.52 0.04,0.83 0.03,1.4 -0.05,1.72 -0.06,0.22 -0.16,0.41 -0.31,0.56 -0.18,0.18 -0.4,0.27 -0.65,0.28 -0.25,0 -0.45,-0.06 -0.6,-0.22 -0.13,-0.13 -0.22,-0.33 -0.26,-0.58 -0.03,-0.26 0.01,-0.55 0.13,-0.86 0.08,-0.21 0.33,-0.62 0.73,-1.24 0.26,-0.4 0.49,-0.83 0.67,-1.28 -0.44,0.15 -0.89,0.38 -1.37,0.7 -0.8,0.52 -1.33,0.8 -1.6,0.84 -0.42,0.06 -0.75,-0.03 -1,-0.28 -0.15,-0.15 -0.22,-0.34 -0.22,-0.58 0,-0.24 0.08,-0.44 0.24,-0.6 0.18,-0.17 0.42,-0.3 0.73,-0.4 0.31,-0.08 0.79,-0.1 1.42,-0.05 0.63,0.04 1.19,0.01 1.69,-0.11z"/>
   </g>
  </g>
  <g id="_1593616499104">
   <g>
    <path class="fil1" d="M42.31 147.06c-0.39,0.34 -0.82,0.63 -1.31,0.86 -0.71,0.34 -1.16,0.61 -1.36,0.8 -0.27,0.28 -0.41,0.55 -0.42,0.83 -0.01,0.28 0.07,0.51 0.27,0.7 0.16,0.16 0.37,0.24 0.64,0.22 0.27,-0.03 0.53,-0.17 0.8,-0.44 0.24,-0.24 0.5,-0.64 0.78,-1.2 0.29,-0.57 0.6,-1.05 0.93,-1.45 0.11,0.48 0.14,0.97 0.11,1.47 -0.06,0.78 -0.05,1.31 0.02,1.58 0.08,0.28 0.2,0.51 0.39,0.69 0.16,0.17 0.37,0.26 0.61,0.26 0.24,0 0.45,-0.08 0.61,-0.25 0.2,-0.19 0.28,-0.45 0.26,-0.78 -0.02,-0.33 -0.3,-0.93 -0.85,-1.78 -0.31,-0.5 -0.55,-0.94 -0.7,-1.33 0.41,0.14 0.86,0.36 1.33,0.68 0.76,0.53 1.32,0.81 1.7,0.83 0.37,0.02 0.66,-0.07 0.87,-0.28 0.16,-0.15 0.24,-0.35 0.23,-0.59 0,-0.24 -0.08,-0.43 -0.23,-0.59 -0.16,-0.16 -0.4,-0.28 -0.7,-0.36 -0.31,-0.09 -0.82,-0.1 -1.54,-0.04 -0.47,0.04 -0.99,0.02 -1.54,-0.08 0.31,-0.29 0.7,-0.56 1.17,-0.8 0.82,-0.44 1.34,-0.77 1.56,-0.99 0.22,-0.22 0.34,-0.46 0.36,-0.74 0.02,-0.27 -0.05,-0.48 -0.19,-0.62 -0.2,-0.2 -0.45,-0.3 -0.77,-0.31 -0.22,0 -0.45,0.13 -0.69,0.38 -0.26,0.25 -0.51,0.61 -0.74,1.09 -0.24,0.49 -0.41,0.81 -0.51,0.98 -0.1,0.16 -0.28,0.39 -0.52,0.69 -0.11,-0.53 -0.15,-1.03 -0.12,-1.52 0.04,-0.82 0.03,-1.39 -0.05,-1.7 -0.06,-0.22 -0.15,-0.41 -0.3,-0.56 -0.18,-0.18 -0.4,-0.27 -0.65,-0.27 -0.25,-0.01 -0.44,0.06 -0.59,0.21 -0.14,0.13 -0.22,0.32 -0.26,0.58 -0.04,0.26 0.01,0.54 0.13,0.85 0.08,0.21 0.32,0.62 0.72,1.23 0.26,0.4 0.48,0.83 0.67,1.27 -0.44,-0.15 -0.89,-0.37 -1.37,-0.69 -0.79,-0.52 -1.32,-0.8 -1.58,-0.84 -0.41,-0.06 -0.75,0.03 -1,0.28 -0.14,0.14 -0.21,0.34 -0.21,0.57 0,0.24 0.08,0.44 0.24,0.6 0.17,0.18 0.41,0.31 0.72,0.39 0.31,0.09 0.78,0.11 1.41,0.06 0.63,-0.04 1.18,-0.01 1.67,0.11z"/>
   </g>
  </g>
 </g>
</svg>
